<svg width="201" height="70" viewBox="0 0 201 70" fill="none" xmlns="http://www.w3.org/2000/svg">
<g clip-path="url(#clip0_126_217)">
<path d="M85.4593 7.4502L81.1973 20.2273H82.8331L83.8293 17.2382H89.2716L90.2775 20.2273H91.9133L87.6513 7.4502H85.4593ZM84.3235 15.7544L86.5388 9.11103L88.7735 15.7544H84.3235Z" fill="#111111"/>
<path d="M98.7435 18.6636C98.3694 18.9359 97.8578 19.072 97.2085 19.072C96.5185 19.072 95.9409 18.9203 95.4758 18.615C95.0106 18.3097 94.7122 17.8974 94.5823 17.3781L92.9736 17.6348C93.1384 18.5333 93.5841 19.2334 94.3129 19.7332C95.0416 20.233 95.9739 20.482 97.1116 20.482C98.2493 20.482 99.2358 20.2175 99.9142 19.6885C100.593 19.1595 100.932 18.4322 100.932 17.5104C100.932 17.0144 100.829 16.5944 100.622 16.254C100.416 15.9137 100.069 15.6181 99.5827 15.3672C99.0963 15.1163 98.4315 14.883 97.5884 14.671C96.8402 14.4824 96.2685 14.3132 95.877 14.1654C95.4855 14.0176 95.2161 13.862 95.0726 13.6986C94.9273 13.5352 94.8556 13.3369 94.8556 13.0996C94.8556 12.6912 95.0494 12.3664 95.4351 12.1233C95.8208 11.8803 96.3228 11.7675 96.943 11.7869C97.5922 11.8044 98.1252 11.9639 98.5439 12.2614C98.9625 12.5609 99.2106 12.9635 99.2862 13.473L100.895 13.1794C100.831 12.6173 100.622 12.1253 100.271 11.7013C99.92 11.2793 99.4587 10.9507 98.8869 10.7212C98.3152 10.4897 97.6659 10.375 96.941 10.375C96.2162 10.375 95.5688 10.4917 95.0184 10.7251C94.4679 10.9584 94.0377 11.2852 93.7314 11.7052C93.4252 12.1253 93.2721 12.6154 93.2721 13.1774C93.2721 13.6383 93.3748 14.0292 93.5822 14.3482C93.7877 14.6671 94.1326 14.9472 94.6172 15.1864C95.0998 15.4256 95.7646 15.6589 96.6077 15.8826C97.3849 16.0946 97.9682 16.2754 98.3539 16.4232C98.7396 16.571 98.9955 16.7286 99.1195 16.8978C99.2436 17.0669 99.3056 17.2828 99.3056 17.5493C99.3056 18.016 99.1176 18.3855 98.7435 18.6578V18.6636Z" fill="#111111"/>
<path d="M108.126 18.6636C107.752 18.9359 107.241 19.072 106.591 19.072C105.901 19.072 105.324 18.9203 104.859 18.615C104.393 18.3097 104.095 17.8974 103.965 17.3781L102.356 17.6348C102.521 18.5333 102.967 19.2334 103.696 19.7332C104.424 20.233 105.357 20.482 106.494 20.482C107.632 20.482 108.619 20.2175 109.297 19.6885C109.975 19.1595 110.314 18.4322 110.314 17.5104C110.314 17.0144 110.212 16.5944 110.004 16.254C109.799 15.9137 109.452 15.6181 108.966 15.3672C108.479 15.1163 107.814 14.883 106.971 14.671C106.223 14.4824 105.651 14.3132 105.26 14.1654C104.868 14.0176 104.599 13.862 104.455 13.6986C104.31 13.5352 104.238 13.3369 104.238 13.0996C104.238 12.6912 104.432 12.3664 104.818 12.1233C105.204 11.8803 105.706 11.7675 106.326 11.7869C106.975 11.8044 107.508 11.9639 107.927 12.2614C108.345 12.5609 108.593 12.9635 108.669 13.473L110.278 13.1794C110.214 12.6173 110.004 12.1253 109.654 11.7013C109.303 11.2793 108.842 10.9507 108.27 10.7212C107.698 10.4897 107.049 10.375 106.324 10.375C105.599 10.375 104.952 10.4917 104.401 10.7251C103.851 10.9584 103.42 11.2852 103.114 11.7052C102.808 12.1253 102.655 12.6154 102.655 13.1774C102.655 13.6383 102.758 14.0292 102.965 14.3482C103.17 14.6671 103.515 14.9472 104 15.1864C104.483 15.4256 105.147 15.6589 105.99 15.8826C106.768 16.0946 107.351 16.2754 107.737 16.4232C108.122 16.571 108.378 16.7286 108.502 16.8978C108.626 17.0669 108.688 17.2828 108.688 17.5493C108.688 18.016 108.5 18.3855 108.126 18.6578V18.6636Z" fill="#111111"/>
<path d="M113.952 19.8674C114.649 20.2836 115.467 20.4937 116.405 20.4937C117.343 20.4937 118.167 20.2622 118.911 19.7974C119.658 19.3326 120.216 18.6772 120.588 17.8332L119.076 17.3101C118.811 17.8546 118.446 18.2708 117.979 18.5606C117.514 18.8503 116.965 18.9962 116.334 18.9962C115.396 18.9962 114.675 18.685 114.167 18.0646C113.729 17.5279 113.481 16.7986 113.421 15.8826H120.745C120.791 14.7469 120.646 13.7687 120.307 12.946C119.968 12.1234 119.462 11.4913 118.785 11.0479C118.111 10.6045 117.293 10.3828 116.332 10.3828C115.37 10.3828 114.601 10.5909 113.913 11.009C113.227 11.4252 112.692 12.0184 112.308 12.7827C111.924 13.5489 111.732 14.4552 111.732 15.5014C111.732 16.5477 111.926 17.3743 112.316 18.123C112.705 18.8717 113.248 19.4532 113.948 19.8713L113.952 19.8674ZM114.169 12.7379C114.676 12.1117 115.415 11.7967 116.388 11.7967C117.295 11.7967 117.979 12.0884 118.438 12.6699C118.801 13.1288 119.024 13.7784 119.111 14.6088H113.454C113.548 13.8309 113.787 13.2066 114.167 12.736L114.169 12.7379Z" fill="#111111"/>
<path d="M127.95 18.6636C127.575 18.9359 127.064 19.072 126.415 19.072C125.725 19.072 125.147 18.9203 124.682 18.615C124.217 18.3097 123.918 17.8974 123.788 17.3781L122.18 17.6348C122.344 18.5333 122.79 19.2334 123.519 19.7332C124.248 20.233 125.18 20.482 126.318 20.482C127.455 20.482 128.442 20.2175 129.12 19.6885C129.799 19.1595 130.138 18.4322 130.138 17.5104C130.138 17.0144 130.035 16.5944 129.828 16.254C129.622 15.9137 129.275 15.6181 128.789 15.3672C128.302 15.1163 127.638 14.883 126.794 14.671C126.046 14.4824 125.475 14.3132 125.083 14.1654C124.692 14.0176 124.422 13.862 124.279 13.6986C124.133 13.5352 124.062 13.3369 124.062 13.0996C124.062 12.6912 124.255 12.3664 124.641 12.1233C125.027 11.8803 125.529 11.7675 126.149 11.7869C126.798 11.8044 127.331 11.9639 127.75 12.2614C128.169 12.5609 128.417 12.9635 128.492 13.473L130.101 13.1794C130.037 12.6173 129.828 12.1253 129.477 11.7013C129.126 11.2793 128.665 10.9507 128.093 10.7212C127.521 10.4897 126.872 10.375 126.147 10.375C125.422 10.375 124.775 10.4917 124.224 10.7251C123.674 10.9584 123.244 11.2852 122.938 11.7052C122.631 12.1253 122.478 12.6154 122.478 13.1774C122.478 13.6383 122.581 14.0292 122.788 14.3482C122.994 14.6671 123.339 14.9472 123.823 15.1864C124.306 15.4256 124.971 15.6589 125.814 15.8826C126.591 16.0946 127.174 16.2754 127.56 16.4232C127.946 16.571 128.202 16.7286 128.326 16.8978C128.45 17.0669 128.512 17.2828 128.512 17.5493C128.512 18.016 128.324 18.3855 127.95 18.6578V18.6636Z" fill="#111111"/>
<path d="M137.332 18.6636C136.958 18.9359 136.447 19.072 135.797 19.072C135.107 19.072 134.53 18.9203 134.065 18.615C133.6 18.3097 133.301 17.8974 133.171 17.3781L131.562 17.6348C131.727 18.5333 132.173 19.2334 132.902 19.7332C133.631 20.233 134.563 20.482 135.7 20.482C136.838 20.482 137.825 20.2175 138.503 19.6885C139.181 19.1595 139.521 18.4322 139.521 17.5104C139.521 17.0144 139.418 16.5944 139.21 16.254C139.005 15.9137 138.658 15.6181 138.172 15.3672C137.685 15.1163 137.02 14.883 136.177 14.671C135.429 14.4824 134.857 14.3132 134.466 14.1654C134.074 14.0176 133.805 13.862 133.662 13.6986C133.516 13.5352 133.444 13.3369 133.444 13.0996C133.444 12.6912 133.638 12.3664 134.024 12.1233C134.41 11.8803 134.912 11.7675 135.532 11.7869C136.181 11.8044 136.714 11.9639 137.133 12.2614C137.551 12.5609 137.799 12.9635 137.875 13.473L139.484 13.1794C139.42 12.6173 139.21 12.1253 138.86 11.7013C138.509 11.2793 138.048 10.9507 137.476 10.7212C136.904 10.4897 136.255 10.375 135.53 10.375C134.805 10.375 134.158 10.4917 133.607 10.7251C133.057 10.9584 132.627 11.2852 132.32 11.7052C132.014 12.1253 131.861 12.6154 131.861 13.1774C131.861 13.6383 131.964 14.0292 132.171 14.3482C132.377 14.6671 132.722 14.9472 133.206 15.1864C133.689 15.4256 134.353 15.6589 135.197 15.8826C135.974 16.0946 136.557 16.2754 136.943 16.4232C137.329 16.571 137.584 16.7286 137.708 16.8978C137.832 17.0669 137.894 17.2828 137.894 17.5493C137.894 18.016 137.706 18.3855 137.332 18.6578V18.6636Z" fill="#111111"/>
<path d="M143.047 14.1402C143.047 13.442 143.239 12.878 143.623 12.4502C144.007 12.0204 144.507 11.8064 145.127 11.8064C145.747 11.8064 146.253 12.0165 146.631 12.4366C147.009 12.8566 147.197 13.4303 147.197 14.1577L147.187 20.2273H148.751L148.759 14.1402C148.759 13.6015 148.86 13.162 149.059 12.8177C149.259 12.4755 149.519 12.2207 149.837 12.0554C150.155 11.8901 150.492 11.8064 150.844 11.8064C151.451 11.8064 151.945 12.0087 152.325 12.4152C152.705 12.8197 152.895 13.3817 152.895 14.0974L152.885 20.2292H154.459L154.469 13.7532C154.469 12.736 154.182 11.9231 153.61 11.3125C153.038 10.7038 152.254 10.3984 151.257 10.3984C150.622 10.3984 150.048 10.5404 149.542 10.8243C149.048 11.1024 148.656 11.4895 148.366 11.9834C148.106 11.4758 147.738 11.0869 147.261 10.8107C146.784 10.5365 146.224 10.3984 145.58 10.3984C144.937 10.3984 144.363 10.5404 143.856 10.8243C143.46 11.046 143.131 11.3319 142.865 11.6762V10.6474H141.46V20.2292H143.043V14.1421L143.047 14.1402Z" fill="#111111"/>
<path d="M158.367 19.8674C159.064 20.2836 159.882 20.4937 160.82 20.4937C161.758 20.4937 162.582 20.2622 163.326 19.7974C164.073 19.3326 164.631 18.6772 165.003 17.8332L163.491 17.3101C163.226 17.8546 162.861 18.2708 162.394 18.5606C161.929 18.8503 161.38 18.9962 160.749 18.9962C159.811 18.9962 159.09 18.685 158.582 18.0646C158.144 17.5279 157.896 16.7986 157.836 15.8826H165.16C165.206 14.7469 165.061 13.7687 164.722 12.946C164.383 12.1234 163.877 11.4913 163.2 11.0479C162.526 10.6045 161.708 10.3828 160.747 10.3828C159.785 10.3828 159.014 10.5909 158.328 11.009C157.642 11.4252 157.107 12.0184 156.723 12.7827C156.339 13.5489 156.147 14.4552 156.147 15.5014C156.147 16.5477 156.341 17.3743 156.731 18.123C157.12 18.8717 157.663 19.4532 158.363 19.8713L158.367 19.8674ZM158.584 12.7379C159.092 12.1117 159.83 11.7967 160.803 11.7967C161.71 11.7967 162.394 12.0884 162.853 12.6699C163.216 13.1288 163.439 13.7784 163.526 14.6088H157.869C157.964 13.8309 158.202 13.2066 158.582 12.736L158.584 12.7379Z" fill="#111111"/>
<path d="M169.995 12.0981C170.317 11.962 170.674 11.8939 171.069 11.8939C171.577 11.8939 171.995 11.9912 172.329 12.1876C172.662 12.3821 172.926 12.6485 173.12 12.9869C173.313 13.3234 173.453 13.7026 173.534 14.1227C173.618 14.5427 173.658 14.9784 173.658 15.4276V20.2273H175.25V14.9297C175.25 14.5699 175.215 14.181 175.149 13.7668C175.081 13.3525 174.965 12.948 174.8 12.5513C174.635 12.1545 174.408 11.7948 174.12 11.468C173.831 11.1433 173.468 10.8827 173.032 10.6882C172.596 10.4937 172.069 10.3945 171.449 10.3945C170.629 10.3945 169.918 10.5734 169.313 10.9313C168.9 11.1763 168.551 11.4953 168.264 11.8842V10.6415H166.85V20.2234H168.441V15.1748C168.441 14.6186 168.505 14.1363 168.631 13.724C168.757 13.3136 168.935 12.9733 169.166 12.703C169.396 12.4346 169.672 12.2304 169.993 12.0962L169.995 12.0981Z" fill="#111111"/>
<path d="M179.731 20.0346C180.165 20.2388 180.655 20.3516 181.208 20.3711C181.758 20.3925 182.318 20.3419 182.884 20.2252V18.8678C182.229 18.9689 181.671 18.9864 181.208 18.9203C180.744 18.8561 180.407 18.6344 180.196 18.2552C180.084 18.0548 180.023 17.8137 180.014 17.5356C180.004 17.2575 180 16.923 180 16.5321V11.9444H182.882V10.6394H180V7.97705H178.426V10.6394H176.49V11.9444H178.426V16.6021C178.426 17.0922 178.434 17.5317 178.448 17.9207C178.463 18.3077 178.564 18.6908 178.752 19.07C178.969 19.5076 179.297 19.8285 179.729 20.0327L179.731 20.0346Z" fill="#111111"/>
<path d="M90.225 41.2542V28.4771H88.6415V32.5475C88.4748 32.3705 88.2926 32.2091 88.093 32.0652C87.4805 31.6237 86.7227 31.4039 85.8215 31.4039C84.9202 31.4039 84.176 31.6237 83.5403 32.0652C82.9046 32.5066 82.4123 33.1075 82.0673 33.8699C81.7223 34.6322 81.5498 35.4938 81.5498 36.4525C81.5498 37.4113 81.7223 38.2729 82.0673 39.0391C82.4123 39.8053 82.9026 40.4102 83.5403 40.8536C84.1779 41.297 84.9396 41.5187 85.8312 41.5187C86.7227 41.5187 87.4825 41.295 88.0949 40.8497C88.3663 40.6513 88.6066 40.4218 88.8198 40.1612V41.2522H90.225V41.2542ZM88.5213 38.3215C88.3236 38.868 88.0194 39.2977 87.6065 39.607C87.1937 39.9181 86.6665 40.0737 86.0231 40.0737C85.3796 40.0737 84.8776 39.9142 84.4628 39.5953C84.0481 39.2764 83.736 38.8427 83.5306 38.2962C83.3232 37.7497 83.2205 37.1352 83.2205 36.4545C83.2205 35.7738 83.3213 35.1709 83.5248 34.6264C83.7283 34.0819 84.0403 33.6501 84.4628 33.3312C84.8834 33.0123 85.4184 32.8528 86.0676 32.8528C86.7169 32.8528 87.2073 33.0045 87.6104 33.3098C88.0135 33.6151 88.3159 34.0391 88.5175 34.5836C88.7171 35.1282 88.8179 35.7524 88.8179 36.4564C88.8179 37.1604 88.719 37.7769 88.5213 38.3234V38.3215Z" fill="#111111"/>
<path d="M94.3842 40.8943C95.082 41.3105 95.8999 41.5205 96.8379 41.5205C97.776 41.5205 98.5997 41.2891 99.344 40.8243C100.09 40.3595 100.648 39.7041 101.02 38.8581L99.5087 38.335C99.2432 38.8795 98.8788 39.2957 98.4117 39.5855C97.9466 39.8752 97.398 40.0211 96.7662 40.0211C95.8281 40.0211 95.1072 39.7099 94.5994 39.0896C94.1613 38.5528 93.9133 37.8235 93.8532 36.9075H101.177C101.224 35.7718 101.079 34.7936 100.739 33.9709C100.4 33.1483 99.8944 32.5162 99.218 32.0728C98.5435 31.6294 97.7256 31.4077 96.7643 31.4077C95.803 31.4077 95.0316 31.6158 94.3455 32.0339C93.6594 32.4501 93.1244 33.0433 92.7407 33.8076C92.3569 34.5738 92.165 35.4801 92.165 36.5263C92.165 37.5726 92.3589 38.3992 92.7484 39.1479C93.138 39.8966 93.6807 40.4781 94.3803 40.8962L94.3842 40.8943ZM94.6013 33.7667C95.1091 33.1405 95.8475 32.8254 96.8205 32.8254C97.7275 32.8254 98.4117 33.1172 98.871 33.6987C99.2335 34.1576 99.4564 34.8072 99.5436 35.6376H93.8861C93.9811 34.8597 94.2195 34.2354 94.5994 33.7648L94.6013 33.7667Z" fill="#111111"/>
<path d="M108.43 28.4771H106.856V41.2542H108.43V28.4771Z" fill="#111111"/>
<path d="M114.218 33.127C114.54 32.9908 114.896 32.9228 115.292 32.9228C115.799 32.9228 116.218 33.02 116.551 33.2164C116.885 33.4109 117.148 33.6773 117.342 34.0157C117.536 34.3522 117.676 34.7314 117.757 35.1515C117.84 35.5715 117.881 36.0072 117.881 36.4564V41.2561H119.472V35.9585C119.472 35.5988 119.437 35.2098 119.371 34.7956C119.304 34.3813 119.187 33.9768 119.023 33.5801C118.858 33.1834 118.631 32.8236 118.342 32.4969C118.053 32.1721 117.691 31.9115 117.255 31.717C116.819 31.5225 116.292 31.4233 115.671 31.4233C114.852 31.4233 114.14 31.6023 113.536 31.9601C113.123 32.2051 112.774 32.5241 112.487 32.913V31.6703H111.072V41.2522H112.663V36.2036C112.663 35.6474 112.727 35.1651 112.853 34.7528C112.979 34.3424 113.158 34.0021 113.388 33.7318C113.619 33.4634 113.894 33.2592 114.216 33.125L114.218 33.127Z" fill="#111111"/>
<path d="M127.106 32.9771V31.6722H124.224V29.0098H122.65V31.6722H120.714V32.9771H122.65V37.6348C122.65 38.1249 122.658 38.5644 122.671 38.9534C122.687 39.3404 122.788 39.7235 122.976 40.1027C123.193 40.5403 123.52 40.8612 123.953 41.0654C124.387 41.2696 124.877 41.3824 125.429 41.4018C125.98 41.4232 126.54 41.3727 127.106 41.256V39.8985C126.451 39.9997 125.893 40.0172 125.429 39.951C124.966 39.8869 124.629 39.6652 124.418 39.2859C124.305 39.0856 124.245 38.8445 124.235 38.5664C124.226 38.2883 124.222 37.9538 124.222 37.5629V32.9751H127.104L127.106 32.9771Z" fill="#111111"/>
<path d="M136.974 38.8581L135.462 38.335C135.196 38.8795 134.832 39.2957 134.365 39.5855C133.9 39.8752 133.351 40.0211 132.719 40.0211C131.781 40.0211 131.06 39.7099 130.552 39.0896C130.114 38.5528 129.866 37.8235 129.806 36.9075H137.131C137.177 35.7718 137.032 34.7936 136.693 33.9709C136.353 33.1483 135.846 32.5162 135.171 32.0728C134.497 31.6294 133.679 31.4077 132.717 31.4077C131.756 31.4077 130.985 31.6158 130.299 32.0339C129.612 32.4501 129.078 33.0433 128.694 33.8076C128.31 34.5738 128.118 35.4801 128.118 36.5263C128.118 37.5726 128.312 38.3992 128.702 39.1479C129.091 39.8966 129.634 40.4781 130.333 40.8962C131.031 41.3124 131.849 41.5225 132.787 41.5225C133.725 41.5225 134.549 41.291 135.293 40.8262C136.039 40.3614 136.598 39.706 136.97 38.8601L136.974 38.8581ZM130.554 33.7667C131.062 33.1405 131.801 32.8254 132.774 32.8254C133.681 32.8254 134.365 33.1172 134.824 33.6987C135.187 34.1576 135.409 34.8072 135.497 35.6376H129.839C129.934 34.8597 130.173 34.2354 130.552 33.7648L130.554 33.7667Z" fill="#111111"/>
<path d="M140.846 28.2124H139.272V41.256H140.846V28.2124Z" fill="#111111"/>
<path d="M145.25 28.3447H143.676V29.9764H145.25V28.3447Z" fill="#111111"/>
<path d="M145.25 31.6724H143.676V41.2542H145.25V31.6724Z" fill="#111111"/>
<path d="M154.64 32.7477C154.427 32.489 154.187 32.2615 153.915 32.067C153.303 31.6255 152.545 31.4058 151.644 31.4058C150.743 31.4058 149.998 31.6255 149.363 32.067C148.727 32.5084 148.235 33.1094 147.89 33.8717C147.545 34.6341 147.372 35.4956 147.372 36.4544C147.372 37.4132 147.545 38.2747 147.89 39.0409C148.235 39.8072 148.725 40.412 149.363 40.8554C150 41.2988 150.762 41.5205 151.653 41.5205C152.545 41.5205 153.305 41.2969 153.917 40.8515C154.113 40.7095 154.291 40.5481 154.456 40.375V41.3007C154.462 41.9522 154.367 42.4948 154.173 42.9324C153.979 43.37 153.683 43.7006 153.283 43.9223C152.886 44.144 152.382 44.2548 151.776 44.2548C151.316 44.2548 150.868 44.1479 150.436 43.9359C150.002 43.722 149.669 43.3836 149.432 42.9149L147.99 43.6772C148.256 44.1498 148.587 44.5427 148.985 44.8519C149.382 45.1631 149.82 45.3945 150.297 45.5481C150.774 45.7018 151.264 45.7795 151.764 45.7795C152.524 45.7795 153.194 45.6706 153.772 45.4548C154.349 45.2389 154.82 44.9102 155.187 44.4707C155.553 44.0293 155.797 43.4692 155.921 42.7885C155.968 42.5512 155.999 42.314 156.014 42.0748C156.03 41.8356 156.036 41.5827 156.036 41.3163V31.6722H154.638V32.7477H154.64ZM154.346 38.3214C154.148 38.8678 153.844 39.2976 153.431 39.6069C153.018 39.918 152.491 40.0736 151.847 40.0736C151.204 40.0736 150.702 39.9141 150.287 39.5952C149.872 39.2762 149.56 38.8426 149.355 38.2961C149.147 37.7496 149.045 37.135 149.045 36.4544C149.045 35.7737 149.145 35.1708 149.349 34.6263C149.552 34.0818 149.865 33.65 150.287 33.3311C150.708 33.0121 151.243 32.8527 151.892 32.8527C152.541 32.8527 153.031 33.0044 153.435 33.3097C153.838 33.615 154.14 34.039 154.342 34.5835C154.541 35.128 154.642 35.7523 154.642 36.4563C154.642 37.1603 154.543 37.7768 154.346 38.3233V38.3214Z" fill="#111111"/>
<path d="M165.034 32.0709C164.36 31.6275 163.542 31.4058 162.581 31.4058C161.619 31.4058 160.848 31.6139 160.162 32.032C159.476 32.4482 158.941 33.0413 158.557 33.8056C158.173 34.5718 157.981 35.4781 157.981 36.5244C157.981 37.5707 158.175 38.3972 158.565 39.1459C158.954 39.8947 159.497 40.4762 160.197 40.8943C160.894 41.3105 161.712 41.5205 162.65 41.5205C163.589 41.5205 164.412 41.2891 165.156 40.8243C165.903 40.3595 166.461 39.7041 166.833 38.8581L165.321 38.335C165.056 38.8795 164.691 39.2957 164.224 39.5855C163.759 39.8752 163.211 40.0211 162.579 40.0211C161.641 40.0211 160.92 39.7099 160.412 39.0895C159.974 38.5528 159.726 37.8235 159.666 36.9075H166.99C167.037 35.7718 166.891 34.7935 166.552 33.9709C166.213 33.1483 165.707 32.5162 165.031 32.0728L165.034 32.0709ZM160.414 33.7667C160.922 33.1405 161.66 32.8254 162.633 32.8254C163.54 32.8254 164.224 33.1172 164.684 33.6986C165.046 34.1576 165.269 34.8072 165.356 35.6376H159.699C159.794 34.8597 160.03 34.2354 160.412 33.7648L160.414 33.7667Z" fill="#111111"/>
<path d="M161.865 27.6797L159.706 30.2079H161.255L162.563 28.656L163.871 30.2079H165.42L163.263 27.6797H161.865Z" fill="#111111"/>
<path d="M176.632 33.5801C176.467 33.1834 176.24 32.8236 175.952 32.4969C175.663 32.1721 175.3 31.9115 174.864 31.717C174.428 31.5225 173.901 31.4233 173.281 31.4233C172.461 31.4233 171.75 31.6023 171.145 31.9601C170.732 32.2051 170.383 32.5241 170.096 32.913V31.6703H168.682V41.2522H170.273V36.2036C170.273 35.6474 170.337 35.1651 170.463 34.7528C170.589 34.3424 170.767 34.0021 170.998 33.7318C171.228 33.4634 171.504 33.2592 171.825 33.125C172.147 32.9889 172.504 32.9208 172.899 32.9208C173.407 32.9208 173.825 33.018 174.159 33.2145C174.492 33.4089 174.756 33.6754 174.95 34.0138C175.143 34.3502 175.283 34.7294 175.364 35.1495C175.448 35.5696 175.488 36.0052 175.488 36.4545V41.2541H177.08V35.9566C177.08 35.5968 177.045 35.2079 176.979 34.7936C176.911 34.3794 176.795 33.9749 176.63 33.5781L176.632 33.5801Z" fill="#111111"/>
<path d="M181.698 33.3622C182.122 33.0569 182.661 32.9052 183.316 32.9052C183.894 32.9052 184.408 33.0588 184.859 33.3661C185.311 33.6734 185.638 34.1051 185.846 34.6613L187.402 34.1907C187.154 33.3272 186.666 32.6465 185.939 32.1506C185.21 31.6527 184.344 31.4058 183.334 31.4058C182.378 31.4058 181.562 31.6197 180.884 32.0495C180.206 32.4793 179.684 33.0724 179.32 33.8328C178.954 34.5932 178.769 35.4703 178.764 36.4641C178.769 37.4404 178.952 38.3097 179.308 39.072C179.665 39.8344 180.18 40.4334 180.855 40.869C181.529 41.3046 182.351 41.5205 183.318 41.5205C184.285 41.5205 185.154 41.2832 185.855 40.8107C186.557 40.3381 187.073 39.6535 187.402 38.7609L185.811 38.3447C185.592 38.8892 185.278 39.3054 184.869 39.5913C184.46 39.8791 183.942 40.0211 183.316 40.0211C182.367 40.0211 181.653 39.6944 181.173 39.0409C180.692 38.3875 180.446 37.5279 180.434 36.4641C180.44 35.7718 180.547 35.1592 180.752 34.6224C180.958 34.0876 181.274 33.6675 181.698 33.3622Z" fill="#111111"/>
<path d="M190.699 28.3447H189.125V29.9764H190.699V28.3447Z" fill="#111111"/>
<path d="M190.699 31.6724H189.125V41.2542H190.699V31.6724Z" fill="#111111"/>
<path d="M200.948 34.2412C200.913 33.8951 200.828 33.5742 200.692 33.2786C200.421 32.6524 199.975 32.1837 199.353 31.8725C198.731 31.5613 197.986 31.4058 197.12 31.4058C196.041 31.4058 195.172 31.645 194.511 32.1253C193.85 32.6037 193.407 33.263 193.176 34.1032L194.67 34.5563C194.847 33.9709 195.153 33.545 195.585 33.2786C196.019 33.0121 196.523 32.8799 197.101 32.8799C197.973 32.8799 198.585 33.086 198.94 33.4964C199.258 33.8659 199.426 34.4124 199.45 35.1319C199.111 35.1786 198.76 35.2253 198.392 35.2759C197.814 35.3536 197.244 35.4373 196.684 35.5287C196.124 35.6201 195.616 35.729 195.163 35.8534C194.68 35.9954 194.261 36.1899 193.911 36.4388C193.56 36.6878 193.29 36.995 193.102 37.3606C192.914 37.7282 192.819 38.1619 192.819 38.6656C192.819 39.1693 192.941 39.6535 193.186 40.0853C193.43 40.517 193.792 40.8651 194.273 41.1277C194.754 41.3902 195.351 41.5224 196.064 41.5224C196.982 41.5224 197.767 41.326 198.417 40.9332C198.888 40.6473 199.283 40.2564 199.601 39.7663V41.258H200.998V35.3303C200.998 34.9511 200.981 34.5893 200.946 34.2432L200.948 34.2412ZM199.277 37.9888C199.2 38.3855 199.035 38.7512 198.781 39.0837C198.527 39.4182 198.194 39.6866 197.777 39.8908C197.362 40.095 196.87 40.1961 196.304 40.1961C195.851 40.1961 195.482 40.1222 195.203 39.9744C194.924 39.8266 194.717 39.6341 194.585 39.3968C194.453 39.1596 194.385 38.9126 194.385 38.652C194.385 38.3564 194.455 38.1055 194.593 37.9032C194.73 37.699 194.914 37.5298 195.141 37.3976C195.368 37.2653 195.612 37.1564 195.87 37.0728C196.225 36.9717 196.62 36.8861 197.06 36.8161C197.5 36.7461 197.967 36.678 198.465 36.6119C198.783 36.5711 199.105 36.5263 199.43 36.4797C199.426 36.6314 199.423 36.8025 199.417 37.0028C199.405 37.3645 199.359 37.6913 199.275 37.9869L199.277 37.9888Z" fill="#111111"/>
<path d="M85.4593 49.5059L81.1973 62.283H82.8331L83.8293 59.2939H89.2716L90.2775 62.283H91.9133L87.6513 49.5059H85.4593ZM84.3235 57.812L86.5388 51.1686L88.7735 57.812H84.3235Z" fill="#111111"/>
<path d="M95.91 54.391C96.3344 54.0857 96.8732 53.934 97.5283 53.934C98.1059 53.934 98.6195 54.0876 99.0711 54.3949C99.5227 54.7022 99.8502 55.1339 100.058 55.6901L101.614 55.2195C101.366 54.356 100.877 53.6753 100.151 53.1794C99.4219 52.6816 98.5555 52.4346 97.5458 52.4346C96.5902 52.4346 95.7743 52.6485 95.0959 53.0783C94.4176 53.5081 93.8962 54.1012 93.5318 54.8616C93.1655 55.622 92.9814 56.4991 92.9756 57.4929C92.9814 58.4692 93.1636 59.3385 93.5202 60.1009C93.8768 60.8632 94.3924 61.4622 95.0669 61.8978C95.7413 62.3334 96.5631 62.5493 97.5302 62.5493C98.4974 62.5493 99.3657 62.3121 100.067 61.8395C100.769 61.3669 101.284 60.6823 101.614 59.7897L100.023 59.3735C99.8037 59.918 99.4897 60.3342 99.0808 60.6201C98.6718 60.9079 98.1543 61.0499 97.5283 61.0499C96.5786 61.0499 95.8654 60.7232 95.3847 60.0697C94.9041 59.4163 94.6579 58.5567 94.6463 57.4929C94.6521 56.8006 94.7587 56.188 94.9641 55.6512C95.1696 55.1164 95.4855 54.6963 95.91 54.391Z" fill="#111111"/>
<path d="M109.682 53.0997C109.007 52.6563 108.189 52.4346 107.228 52.4346C106.267 52.4346 105.495 52.6427 104.809 53.0608C104.123 53.477 103.588 54.0701 103.205 54.8344C102.821 55.6007 102.629 56.5069 102.629 57.5532C102.629 58.5995 102.823 59.426 103.212 60.1748C103.602 60.9235 104.145 61.505 104.844 61.9231C105.542 62.3393 106.36 62.5493 107.298 62.5493C108.236 62.5493 109.06 62.3179 109.804 61.8531C110.55 61.3883 111.108 60.7329 111.48 59.8889L109.969 59.3657C109.703 59.9103 109.339 60.3264 108.872 60.6162C108.407 60.906 107.858 61.0518 107.226 61.0518C106.288 61.0518 105.567 60.7407 105.059 60.1203C104.621 59.5835 104.373 58.8543 104.313 57.9383H111.637C111.684 56.8025 111.539 55.8243 111.199 55.0017C110.86 54.179 110.354 53.547 109.678 53.1036L109.682 53.0997ZM105.061 54.7936C105.569 54.1674 106.308 53.8523 107.28 53.8523C108.188 53.8523 108.872 54.144 109.331 54.7255C109.693 55.1845 109.916 55.834 110.004 56.6644H104.346C104.441 55.8865 104.679 55.2623 105.059 54.7916L105.061 54.7936Z" fill="#111111"/>
<path d="M119.683 57.4248C119.197 57.174 118.532 56.9406 117.689 56.7286C116.941 56.54 116.369 56.3708 115.978 56.223C115.586 56.0752 115.317 55.9196 115.173 55.7562C115.028 55.5929 114.956 55.3945 114.956 55.1572C114.956 54.7488 115.15 54.4241 115.536 54.181C115.921 53.9379 116.423 53.8251 117.044 53.8445C117.693 53.862 118.226 54.0215 118.644 54.319C119.063 54.6185 119.311 55.0211 119.387 55.5306L120.995 55.237C120.931 54.6749 120.722 54.1829 120.371 53.759C120.021 53.3369 119.559 53.0083 118.987 52.7788C118.416 52.5474 117.766 52.4326 117.042 52.4326C116.317 52.4326 115.669 52.5493 115.119 52.7827C114.569 53.0161 114.138 53.3428 113.832 53.7628C113.526 54.1829 113.373 54.673 113.373 55.235C113.373 55.6959 113.475 56.0868 113.683 56.4058C113.888 56.7247 114.233 57.0048 114.718 57.244C115.2 57.4832 115.865 57.7166 116.706 57.9402C117.484 58.1522 118.067 58.333 118.453 58.4808C118.838 58.6287 119.094 58.7862 119.218 58.9554C119.342 59.1246 119.404 59.3404 119.404 59.6069C119.404 60.0736 119.216 60.4431 118.842 60.7154C118.468 60.9877 117.956 61.1238 117.307 61.1238C116.617 61.1238 116.04 60.9721 115.574 60.6668C115.109 60.3614 114.811 59.9492 114.681 59.4299L113.072 59.6866C113.237 60.5851 113.683 61.2852 114.412 61.785C115.14 62.2848 116.073 62.5337 117.21 62.5337C118.348 62.5337 119.334 62.2693 120.013 61.7403C120.691 61.2113 121.03 60.484 121.03 59.5621C121.03 59.0662 120.928 58.6462 120.72 58.3058C120.515 57.9655 120.168 57.6699 119.681 57.419L119.683 57.4248Z" fill="#111111"/>
<path d="M129.064 57.4248C128.578 57.174 127.913 56.9406 127.07 56.7286C126.322 56.54 125.75 56.3708 125.358 56.223C124.967 56.0752 124.698 55.9196 124.554 55.7562C124.409 55.5929 124.337 55.3945 124.337 55.1572C124.337 54.7488 124.531 54.4241 124.917 54.181C125.302 53.9379 125.804 53.8251 126.424 53.8445C127.074 53.862 127.607 54.0215 128.025 54.319C128.444 54.6185 128.692 55.0211 128.768 55.5306L130.376 55.237C130.312 54.6749 130.103 54.1829 129.752 53.759C129.401 53.3369 128.94 53.0083 128.368 52.7788C127.797 52.5474 127.147 52.4326 126.422 52.4326C125.698 52.4326 125.05 52.5493 124.5 52.7827C123.949 53.0161 123.519 53.3428 123.213 53.7628C122.907 54.1829 122.754 54.673 122.754 55.235C122.754 55.6959 122.856 56.0868 123.064 56.4058C123.269 56.7247 123.614 57.0048 124.099 57.244C124.581 57.4832 125.246 57.7166 126.087 57.9402C126.864 58.1522 127.448 58.333 127.833 58.4808C128.219 58.6287 128.475 58.7862 128.599 58.9554C128.723 59.1246 128.785 59.3404 128.785 59.6069C128.785 60.0736 128.597 60.4431 128.223 60.7154C127.849 60.9877 127.337 61.1238 126.688 61.1238C125.998 61.1238 125.42 60.9721 124.955 60.6668C124.49 60.3614 124.192 59.9492 124.062 59.4299L122.453 59.6866C122.618 60.5851 123.064 61.2852 123.792 61.785C124.521 62.2848 125.453 62.5337 126.591 62.5337C127.729 62.5337 128.715 62.2693 129.394 61.7403C130.072 61.2113 130.411 60.484 130.411 59.5621C130.411 59.0662 130.308 58.6462 130.101 58.3058C129.896 57.9655 129.549 57.6699 129.062 57.419L129.064 57.4248Z" fill="#111111"/>
<path d="M134.117 52.7012H132.543V62.2831H134.117V52.7012Z" fill="#111111"/>
<path d="M132.719 51.2364H134.002L135.161 48.3076H133.878L132.719 51.2364Z" fill="#111111"/>
<path d="M140.155 60.2683L137.477 52.7012H135.886L139.351 62.2831H140.96L144.427 52.7012H142.826L140.155 60.2683Z" fill="#111111"/>
<path d="M152.186 53.0997C151.511 52.6563 150.693 52.4346 149.732 52.4346C148.771 52.4346 147.999 52.6427 147.313 53.0608C146.627 53.477 146.092 54.0701 145.708 54.8344C145.325 55.6007 145.133 56.5069 145.133 57.5532C145.133 58.5995 145.327 59.426 145.716 60.1748C146.106 60.9235 146.648 61.505 147.348 61.9231C148.046 62.3393 148.864 62.5493 149.802 62.5493C150.74 62.5493 151.564 62.3179 152.308 61.8531C153.054 61.3883 153.612 60.7329 153.984 59.8889L152.473 59.3657C152.207 59.9103 151.843 60.3264 151.376 60.6162C150.91 60.906 150.362 61.0518 149.73 61.0518C148.792 61.0518 148.071 60.7407 147.563 60.1203C147.125 59.5835 146.877 58.8543 146.817 57.9383H154.141C154.188 56.8025 154.042 55.8243 153.703 55.0017C153.364 54.179 152.858 53.547 152.182 53.1036L152.186 53.0997ZM147.567 54.7936C148.075 54.1674 148.813 53.8523 149.786 53.8523C150.693 53.8523 151.378 54.144 151.837 54.7255C152.199 55.1845 152.422 55.834 152.509 56.6644H146.852C146.947 55.8865 147.183 55.2623 147.565 54.7916L147.567 54.7936Z" fill="#111111"/>
<path d="M157.859 49.2393H156.285V62.2828H157.859V49.2393Z" fill="#111111"/>
<path d="M21.5835 40.8728L29.0473 6.24234L27.2855 6.16455H21.3315L8.11914 57.5648H16.5268L19.2655 48.5255H31.3847V40.8728H21.5835Z" fill="#111111"/>
<path d="M47.7509 40.8731L40.2871 5.60856L42.0488 5.53271H48.0009L61.2133 57.565H52.8075L50.0689 48.5257H38.5117V40.8731H47.7509Z" fill="#111111"/>
<path d="M38.7031 27.4092H30.9912V64.3053H38.7031V27.4092Z" fill="#111111"/>
<path d="M34.8809 70C15.6467 70 0 54.2979 0 35C0 15.7021 15.6467 0 34.8809 0C54.1152 0 69.7619 15.7001 69.7619 35C69.7619 54.2999 54.1152 70 34.8809 70ZM34.8809 6.32439C19.1238 6.32439 6.30481 19.1871 6.30481 34.9981C6.30481 50.809 19.1238 63.6717 34.8809 63.6717C50.6381 63.6717 63.4571 50.809 63.4571 34.9981C63.4571 19.1871 50.6381 6.32439 34.8809 6.32439Z" fill="#111111"/>
<mask id="mask0_126_217" style="mask-type:luminance" maskUnits="userSpaceOnUse" x="27" y="11" width="15" height="13">
<path d="M41.0789 11.5308H27.7754V23.9695H41.0789V11.5308Z" fill="white"/>
</mask>
<g mask="url(#mask0_126_217)">
<path d="M34.4794 11.5308C32.0276 11.5308 29.9034 12.9602 28.8936 15.0313C29.0661 15.0508 29.227 15.1091 29.3665 15.1986C30.3046 13.3219 32.2447 12.0306 34.4794 12.0306C36.714 12.0306 38.753 13.388 39.662 15.3425C39.8093 15.2706 39.976 15.2297 40.1504 15.2297H40.1581C39.191 13.0535 37.0086 11.5327 34.4794 11.5327V11.5308ZM36.5357 23.0885C35.8981 23.3375 35.2042 23.4716 34.4794 23.4716C33.7545 23.4716 33.0471 23.3336 32.4036 23.0807C32.3823 23.2519 32.3241 23.4114 32.235 23.5494C32.9327 23.8217 33.6886 23.9714 34.4813 23.9714C35.274 23.9714 36.0183 23.8256 36.7102 23.5572C36.6191 23.4191 36.559 23.2597 36.5377 23.0905L36.5357 23.0885ZM28.7657 17.7501C28.7657 17.5907 28.7734 17.4331 28.7851 17.2776H28.7637C28.5971 17.2776 28.4362 17.2406 28.2947 17.1745C28.2773 17.3631 28.2676 17.5557 28.2676 17.7501C28.2676 19.5782 29.0583 21.2235 30.3181 22.3631C30.4054 22.2192 30.5216 22.0947 30.6612 22.0014C29.4983 20.9532 28.7657 19.4362 28.7657 17.7501ZM40.6795 17.3515C40.5322 17.4292 40.3655 17.4779 40.1892 17.4837C40.193 17.5732 40.195 17.6626 40.195 17.7521C40.195 19.444 39.4585 20.9648 38.2878 22.0131C38.4254 22.1084 38.5417 22.2328 38.627 22.3787C39.8946 21.239 40.6931 19.586 40.6931 17.7521C40.6931 17.6179 40.6892 17.4856 40.6795 17.3534V17.3515Z" fill="#111111"/>
<path d="M34.4254 18.2499C34.2936 18.2499 34.1599 18.248 34.0262 18.2421C31.4116 18.1371 29.4812 17.0111 28.5625 16.3479L28.8455 15.9531C29.7196 16.5832 31.5589 17.6567 34.0455 17.7559C36.8966 17.8707 39.0053 16.6746 40.0112 15.9531L40.2941 16.3479C39.2863 17.0733 37.2164 18.2499 34.4254 18.2499Z" fill="#111111"/>
<path d="M37.3206 22.6178C37.2411 22.6178 37.1636 22.5789 37.1171 22.507L34.4773 18.4502L31.8298 22.507C31.7561 22.6198 31.605 22.6509 31.4945 22.577C31.3821 22.5031 31.3511 22.3533 31.4247 22.2405L34.2757 17.8726C34.3203 17.8045 34.3978 17.7617 34.4792 17.7617C34.5606 17.7617 34.6382 17.8026 34.6827 17.8726L37.5241 22.2405C37.5977 22.3533 37.5648 22.5031 37.4543 22.577C37.4136 22.6042 37.3671 22.6159 37.3225 22.6159L37.3206 22.6178Z" fill="#111111"/>
<path d="M37.637 23.67C38.0401 23.67 38.3657 23.3433 38.3657 22.9407C38.3657 22.5381 38.0401 22.2114 37.637 22.2114C37.2338 22.2114 36.9082 22.5381 36.9082 22.9407C36.9082 23.3433 37.2338 23.67 37.637 23.67Z" fill="#111111"/>
<path d="M37.6374 23.8704C37.1257 23.8704 36.709 23.4542 36.709 22.9408C36.709 22.4274 37.1257 22.0112 37.6374 22.0112C38.149 22.0112 38.5657 22.4274 38.5657 22.9408C38.5657 23.4542 38.149 23.8704 37.6374 23.8704ZM37.6374 22.4119C37.3466 22.4119 37.1082 22.6491 37.1082 22.9428C37.1082 23.2364 37.3466 23.4737 37.6374 23.4737C37.9281 23.4737 38.1665 23.2364 38.1665 22.9428C38.1665 22.6491 37.9281 22.4119 37.6374 22.4119Z" fill="#111111"/>
<path d="M31.2873 23.67C31.6905 23.67 32.0161 23.3433 32.0161 22.9407C32.0161 22.5381 31.6905 22.2114 31.2873 22.2114C30.8842 22.2114 30.5586 22.5381 30.5586 22.9407C30.5586 23.3433 30.8842 23.67 31.2873 23.67Z" fill="#111111"/>
<path d="M31.2877 23.8704C30.7761 23.8704 30.3594 23.4542 30.3594 22.9408C30.3594 22.4274 30.7761 22.0112 31.2877 22.0112C31.7994 22.0112 32.2161 22.4274 32.2161 22.9408C32.2161 23.4542 31.7994 23.8704 31.2877 23.8704ZM31.2877 22.4119C30.997 22.4119 30.7586 22.6491 30.7586 22.9428C30.7586 23.2364 30.997 23.4737 31.2877 23.4737C31.5785 23.4737 31.8169 23.2364 31.8169 22.9428C31.8169 22.6491 31.5785 22.4119 31.2877 22.4119Z" fill="#111111"/>
<path d="M34.4271 16.3555C35.243 16.3555 35.9039 15.6942 35.9039 14.8774C35.9039 14.0606 35.243 13.3994 34.4271 13.3994C33.6111 13.3994 32.9502 14.0606 32.9502 14.8774C32.9502 15.6942 33.6111 16.3555 34.4271 16.3555Z" fill="#111111"/>
<path d="M34.4275 16.5501C33.5069 16.5501 32.7568 15.7994 32.7568 14.8776C32.7568 13.9558 33.5069 13.2051 34.4275 13.2051C35.3481 13.2051 36.0982 13.9558 36.0982 14.8776C36.0982 15.7994 35.3481 16.5501 34.4275 16.5501ZM34.4275 13.596C33.7201 13.596 33.1464 14.1716 33.1464 14.8795C33.1464 15.5874 33.722 16.1631 34.4275 16.1631C35.133 16.1631 35.7106 15.5874 35.7106 14.8795C35.7106 14.1716 35.135 13.596 34.4275 13.596Z" fill="#111111"/>
<path d="M40.1526 17.085C40.5557 17.085 40.8813 16.7583 40.8813 16.3558C40.8813 15.9532 40.5557 15.6265 40.1526 15.6265C39.7494 15.6265 39.4238 15.9532 39.4238 16.3558C39.4238 16.7583 39.7494 17.085 40.1526 17.085Z" fill="#111111"/>
<path d="M40.153 17.2835C39.6413 17.2835 39.2246 16.8673 39.2246 16.3539C39.2246 15.8405 39.6413 15.4243 40.153 15.4243C40.6647 15.4243 41.0814 15.8405 41.0814 16.3539C41.0814 16.8673 40.6647 17.2835 40.153 17.2835ZM40.153 15.8249C39.8623 15.8249 39.6239 16.0622 39.6239 16.3559C39.6239 16.6495 39.8623 16.8868 40.153 16.8868C40.4437 16.8868 40.6821 16.6495 40.6821 16.3559C40.6821 16.0622 40.4437 15.8249 40.153 15.8249Z" fill="#111111"/>
<path d="M28.7018 17.0794C28.1901 17.0794 27.7734 16.6632 27.7734 16.1498C27.7734 15.6364 28.1901 15.2202 28.7018 15.2202C29.2135 15.2202 29.6302 15.6364 29.6302 16.1498C29.6302 16.6632 29.2135 17.0794 28.7018 17.0794Z" fill="#111111"/>
<path d="M28.7043 16.8809C29.1075 16.8809 29.4331 16.5542 29.4331 16.1517C29.4331 15.7491 29.1075 15.4224 28.7043 15.4224C28.3012 15.4224 27.9756 15.7491 27.9756 16.1517C27.9756 16.5542 28.3012 16.8809 28.7043 16.8809Z" fill="#111111"/>
<path d="M28.7018 17.0794C28.1901 17.0794 27.7734 16.6632 27.7734 16.1498C27.7734 15.6364 28.1901 15.2202 28.7018 15.2202C29.2135 15.2202 29.6302 15.6364 29.6302 16.1498C29.6302 16.6632 29.2135 17.0794 28.7018 17.0794ZM28.7018 15.6208C28.4111 15.6208 28.1727 15.8581 28.1727 16.1518C28.1727 16.4454 28.4111 16.6827 28.7018 16.6827C28.9925 16.6827 29.2309 16.4454 29.2309 16.1518C29.2309 15.8581 28.9925 15.6208 28.7018 15.6208Z" fill="#111111"/>
</g>
</g>
<defs>
<clipPath id="clip0_126_217">
<rect width="201" height="70" fill="white"/>
</clipPath>
</defs>
</svg>
