<svg width="77" height="26" viewBox="0 0 77 26" fill="none" xmlns="http://www.w3.org/2000/svg">
<g clip-path="url(#clip0_620_1452)">
<path d="M39.0428 3.19754H41.8428V17.1975C41.8428 20.8975 40.1428 23.4975 36.2428 23.4975C34.7428 23.4975 33.6428 23.2975 32.8428 22.9975V20.2975C33.7428 20.5975 34.7428 20.7975 35.7428 20.7975C38.1428 20.7975 38.9428 19.3975 38.9428 17.3975V3.19754H39.0428Z" fill="white"/>
<path d="M47.0426 2.19754C48.1426 2.19754 48.9426 2.89754 48.9426 3.99754C48.9426 5.09754 48.1426 5.79754 47.0426 5.79754C45.9426 5.79754 45.1426 5.09754 45.1426 3.99754C45.1426 2.89754 45.9426 2.19754 47.0426 2.19754ZM45.6426 7.99754H48.3426V23.2975H45.6426V7.99754Z" fill="white"/>
<path d="M55.1424 23.3976H52.4424V7.99756H55.1424V10.6976C56.0424 8.89756 57.6424 7.59756 60.7424 7.79756V10.3976C57.2424 10.0976 55.1424 11.0976 55.1424 14.2976V23.3976Z" fill="white"/>
<path d="M73.4428 20.5975C72.4428 22.5975 70.5428 23.6975 68.1428 23.6975C63.9428 23.6975 61.8428 20.2975 61.8428 15.6975C61.8428 11.3975 64.0428 7.69754 68.4428 7.69754C70.7428 7.69754 72.5428 8.69754 73.4428 10.6975V7.99754H76.1428V23.2975H73.4428V20.5975ZM68.8428 21.1975C71.2428 21.1975 73.4428 19.6975 73.4428 16.2975V15.0975C73.4428 11.6975 71.4428 10.1975 69.1428 10.1975C66.1428 10.1975 64.5428 12.0975 64.5428 15.6975C64.5428 19.3975 66.0428 21.1975 68.8428 21.1975Z" fill="white"/>
<path d="M24.8424 0.0975342H12.4424C12.4424 3.09753 14.9424 5.49753 18.0424 5.49753H20.3424V7.59753C20.3424 10.5975 22.8424 12.9975 25.9424 12.9975V1.09753C25.8424 0.597534 25.4424 0.0975342 24.8424 0.0975342Z" fill="white"/>
<path d="M18.6422 6.09753H6.24219C6.24219 9.09753 8.74219 11.4975 11.8422 11.4975H14.1422V13.6975C14.1422 16.6975 16.6422 19.0975 19.7422 19.0975V7.09753C19.7422 6.59753 19.2422 6.09753 18.6422 6.09753Z" fill="white"/>
<path d="M12.5426 12.0975H0.142578C0.142578 15.0975 2.64258 17.4975 5.74258 17.4975H8.04258V19.5975C8.04258 22.5975 10.5426 24.9975 13.6426 24.9975V13.1975C13.6426 12.5975 13.1426 12.0975 12.5426 12.0975Z" fill="white"/>
</g>
<defs>
<clipPath id="clip0_620_1452">
<rect width="76" height="25" fill="white" transform="translate(0.142578 0.0975342)"/>
</clipPath>
</defs>
</svg>
