<svg width="104" height="27" viewBox="0 0 104 27" fill="none" xmlns="http://www.w3.org/2000/svg">
<g clip-path="url(#clip0_620_1463)">
<path d="M40.7908 15.826L46.4743 22.8832H41.9863L36.9283 16.4019V22.8832H33.2496V4.31188H36.9283V15.2319L41.6001 9.88319H46.2902L40.7908 15.826ZM26.0765 9.51188C25.271 9.52411 24.4805 9.73322 23.7727 10.1213C23.0648 10.5094 22.4606 11.065 22.0118 11.7404V9.88319H18.5355V22.8832H22.2139V16.8104C22.1657 16.3696 22.2078 15.9235 22.3376 15.4998C22.4674 15.0762 22.6822 14.684 22.9686 14.3478C23.255 14.0116 23.6069 13.7385 24.0023 13.5455C24.3977 13.3525 24.8283 13.2438 25.2671 13.226C27.4008 13.226 27.7319 15.3432 27.7319 16.8104V22.8832H31.4105V15.9932C31.4105 11.9075 30.0677 9.51188 26.1501 9.51188H26.0765ZM58.9996 16.6804C59.0137 16.9527 59.0137 17.2251 58.9996 17.4975H49.3434V17.6275C49.5001 18.402 49.9251 19.0947 50.5419 19.5814C51.1588 20.0681 51.9273 20.3169 52.7094 20.2832C53.3299 20.3104 53.9494 20.211 54.5309 19.9908C55.1124 19.7707 55.6439 19.4343 56.0937 19.0019L58.54 20.8591C57.7647 21.658 56.8321 22.284 55.8025 22.6966C54.7729 23.1092 53.669 23.2993 52.5621 23.2547C51.6455 23.3132 50.7271 23.1723 49.869 22.8417C49.0108 22.5111 48.233 21.9984 47.5879 21.3382C46.9428 20.6781 46.4455 19.8858 46.1297 19.015C45.8138 18.1442 45.6867 17.215 45.7569 16.2904C45.738 15.3775 45.9056 14.4705 46.2491 13.626C46.5926 12.7814 47.1048 12.0173 47.7536 11.3813C48.4024 10.7454 49.1741 10.2512 50.0203 9.92955C50.8666 9.60791 51.7695 9.46573 52.6726 9.51188C56.1305 9.51188 58.9996 11.9819 58.9996 16.6804ZM55.5787 15.0832C55.5652 14.7153 55.4776 14.3541 55.3213 14.0216C55.165 13.689 54.9433 13.3921 54.6697 13.1488C54.3961 12.9055 54.0763 12.7211 53.7298 12.6066C53.3833 12.4922 53.0174 12.4502 52.6543 12.4832C51.0368 12.3067 49.5721 13.457 49.3434 15.0832H55.5787ZM3.82121 4.31188H0.142578V22.8832H11.1783V19.1693H3.82121V4.31188ZM70.0355 4.31188H73.7139V22.8832H70.2377V21.5832C69.7963 22.1323 69.2337 22.5695 68.5949 22.8597C67.9562 23.15 67.2591 23.2852 66.5593 23.2547C65.7043 23.2325 64.8629 23.0341 64.0867 22.6715C63.3105 22.3089 62.616 21.7899 62.0458 21.1463C61.4756 20.5027 61.0417 19.7481 60.771 18.929C60.5002 18.1099 60.3982 17.2436 60.4712 16.3832C60.3844 15.5216 60.4761 14.6512 60.7406 13.8273C61.005 13.0035 61.4364 12.2443 62.0073 11.5979C62.5783 10.9516 63.2762 10.4324 64.0566 10.0732C64.8371 9.71407 65.6831 9.5229 66.5408 9.51188C67.1796 9.48357 67.8176 9.58394 68.4176 9.80713C69.0176 10.0303 69.5676 10.3719 70.0355 10.8119V4.31188ZM70.3113 16.3832C70.3692 15.9543 70.3353 15.518 70.2119 15.1035C70.0885 14.689 69.8786 14.306 69.5962 13.9804C69.3138 13.6548 68.9656 13.3941 68.575 13.216C68.1843 13.0378 67.7604 12.9462 67.3318 12.9475C65.5721 13.0765 64.2388 14.6044 64.3337 16.3832C64.2388 18.162 65.5721 19.6901 67.3318 19.819C67.7604 19.8203 68.1844 19.7288 68.575 19.5506C68.9657 19.3724 69.3139 19.1117 69.5963 18.7861C69.8787 18.4605 70.0886 18.0775 70.212 17.663C70.3353 17.2484 70.3692 16.812 70.3113 16.3832ZM14.8569 3.94036C14.2653 3.94878 13.699 4.18355 13.2722 4.59726C12.8455 5.01097 12.5901 5.57279 12.5577 6.16925C12.5577 7.45117 13.5871 8.49057 14.8569 8.49057C16.1267 8.49057 17.1557 7.45097 17.1557 6.16925C17.1232 5.57286 16.8679 5.01112 16.4412 4.59746C16.0144 4.1838 15.4482 3.94903 14.8567 3.94057M13.0176 22.8832H16.6962V9.88319H13.0176V22.8832ZM103.143 2.45471V24.7404C103.143 25.2329 102.949 25.7053 102.604 26.0536C102.259 26.4019 101.791 26.5975 101.303 26.5975H79.2319C78.7441 26.5975 78.2762 26.4019 77.9313 26.0536C77.5864 25.7053 77.3926 25.2329 77.3926 24.7404V2.45471C77.3926 1.96215 77.5864 1.48977 77.9313 1.14149C78.2762 0.7932 78.7441 0.597534 79.2319 0.597534H101.303C101.791 0.597534 102.259 0.7932 102.604 1.14149C102.949 1.48977 103.143 1.96215 103.143 2.45471ZM84.7496 9.88319H81.0712V22.8832H84.7496V9.88319ZM85.2095 6.16905C85.2095 4.88693 84.1801 3.84753 82.9105 3.84753C81.6409 3.84753 80.6113 4.88693 80.6113 6.16905C80.6113 7.45097 81.6407 8.49036 82.9105 8.49036C84.1801 8.49036 85.2095 7.45097 85.2095 6.16905ZM99.4639 15.9932C99.4639 11.9075 98.1213 9.51188 94.2037 9.51188C93.3858 9.512 92.5804 9.71535 91.8587 10.104C91.1369 10.4926 90.521 11.0546 90.0652 11.7404V9.88319H86.5889V22.8832H90.2676V16.8104C90.2193 16.3696 90.2614 15.9235 90.3912 15.4998C90.5211 15.0762 90.7359 14.684 91.0222 14.3478C91.3086 14.0116 91.6605 13.7385 92.0559 13.5455C92.4514 13.3525 92.8819 13.2438 93.3208 13.226C95.4544 13.226 95.7855 15.3432 95.7855 16.8104V22.8832H99.4639V15.9932Z" fill="white"/>
</g>
<defs>
<clipPath id="clip0_620_1463">
<rect width="103" height="26" fill="white" transform="translate(0.142578 0.597534)"/>
</clipPath>
</defs>
</svg>
