<svg width="117" height="29" viewBox="0 0 117 29" fill="none" xmlns="http://www.w3.org/2000/svg">
<g clip-path="url(#clip0_620_1465)">
<path d="M15.0205 6.82528L13.4494 8.39639C16.0203 10.9673 16.0203 15.1093 13.4494 17.6326C10.8785 20.2035 6.73646 20.2035 4.21317 17.6326C1.64227 15.0617 1.64227 10.9197 4.21317 8.39639L8.28376 4.32579L8.85508 3.75448V0.683685L2.71348 6.82528C-0.714389 10.2531 -0.714389 15.7758 2.71348 19.2037C6.14135 22.6316 11.664 22.6316 15.0205 19.2037C18.4483 15.752 18.4483 10.2531 15.0205 6.82528Z" fill="white"/>
<path d="M13.0919 5.30177C13.0919 5.9445 12.592 6.44439 11.9493 6.44439C11.3065 6.44439 10.8066 5.9445 10.8066 5.30177C10.8066 4.65905 11.3065 4.15915 11.9493 4.15915C12.592 4.15915 13.0919 4.65905 13.0919 5.30177Z" fill="white"/>
<path d="M30.8987 14.6808H28.2564V21.4652H26.2568V2.15961H31.113C36.1834 2.15961 38.6114 4.65909 38.6114 8.15838C38.6829 12.467 35.6835 14.6808 30.8987 14.6808ZM31.113 4.08778C30.8987 4.08778 28.3278 4.08778 28.3278 4.08778V12.9669L31.0416 12.8955C34.6837 12.8241 36.6833 11.3958 36.6833 8.39642C36.6833 5.58747 34.6837 4.08778 31.113 4.08778Z" fill="white"/>
<path d="M47.5616 21.3937L46.419 24.4645C45.1335 27.8924 43.7767 28.8922 41.8485 28.8922C40.7773 28.8922 39.9917 28.6065 39.1348 28.2495L39.7061 26.4641C40.3488 26.8212 41.0629 27.1068 41.8485 27.1068C42.9197 27.1068 43.7053 26.5355 44.7765 23.8218L45.7048 21.3223L40.206 7.3728H42.277L46.7046 19.0371L51.0609 7.3728H53.0605L47.5616 21.3937Z" fill="white"/>
<path d="M59.5837 4.08772V21.5365H57.5841V4.08772H50.7998V2.23096H66.3204V4.08772C66.2966 4.08772 59.5837 4.08772 59.5837 4.08772Z" fill="white"/>
<path d="M71.9621 21.8936C68.0343 21.8936 65.1777 18.9656 65.1777 14.4666C65.1777 9.96749 68.1771 6.96811 72.1763 6.96811C76.1755 6.96811 78.9606 9.89608 78.9606 14.3952C78.8892 18.8942 75.8898 21.8936 71.9621 21.8936ZM72.0335 8.75346C69.0341 8.75346 67.1059 11.1101 67.1059 14.4666C67.1059 17.8944 69.1055 20.2511 72.1049 20.2511C75.1043 20.2511 77.0324 17.8944 77.0324 14.538C77.0324 11.0387 75.0329 8.75346 72.0335 8.75346Z" fill="white"/>
<path d="M83.7446 21.5366H81.8164V7.37282L83.7446 6.94434V9.94372C84.673 8.15837 86.0298 6.94434 87.8866 6.94434C88.815 6.94434 89.6719 7.22999 90.3861 7.58706L89.8862 9.37241C89.2435 9.01534 88.5293 8.72968 87.7438 8.72968C86.2441 8.72968 84.8872 9.87231 83.7446 12.3718V21.5366Z" fill="white"/>
<path d="M97.9096 21.8936C93.6247 21.8936 90.9824 18.8228 90.9824 14.4665C90.9824 10.0389 93.9104 6.96808 97.9096 6.96808C99.6235 6.96808 101.123 7.39656 102.337 8.18211L101.837 9.89605C100.766 9.18191 99.4093 8.75343 97.9096 8.75343C94.8388 8.75343 92.982 11.0387 92.982 14.3951C92.982 17.823 94.9816 20.1082 97.981 20.1082C99.4093 20.1082 100.838 19.6798 101.909 18.9656L102.337 20.751C101.052 21.4651 99.5521 21.8936 97.9096 21.8936Z" fill="white"/>
<path d="M114.143 21.5366V12.3718C114.143 9.87232 113.143 8.80111 111.144 8.80111C109.501 8.80111 107.93 9.65808 106.788 10.8007V21.5366H104.859V0.73134L106.788 0.302856V9.2534C108.287 7.75371 110.144 7.03957 111.715 7.03957C114.429 7.03957 116.143 8.82492 116.143 11.8957V21.5604L114.143 21.5366Z" fill="white"/>
</g>
<defs>
<clipPath id="clip0_620_1465">
<rect width="116" height="28.5894" fill="white" transform="translate(0.142578 0.302856)"/>
</clipPath>
</defs>
</svg>
