<svg width="127" height="31" viewBox="0 0 127 31" fill="none" xmlns="http://www.w3.org/2000/svg">
<g clip-path="url(#clip0_620_1479)">
<path d="M105.033 7.62684C106.28 7.62684 107.283 6.66264 107.283 5.46704C107.283 4.27144 106.267 3.30725 105.033 3.30725C103.799 3.30725 102.783 4.27144 102.783 5.46704C102.77 6.66264 103.786 7.62684 105.033 7.62684Z" fill="white"/>
<path d="M56.2458 25.1494C51.2834 25.1494 47.6709 21.8198 47.6709 17.2302C47.6709 12.6406 51.2706 9.33667 56.2458 9.33667C58.6627 9.33667 60.8611 10.1209 62.4166 11.5479C63.985 12.9749 64.8464 15.0061 64.8464 17.2302C64.8464 19.4671 63.985 21.4855 62.4166 22.9254C60.8611 24.3652 58.6627 25.1494 56.2458 25.1494ZM56.2458 12.7692C53.6618 12.7692 51.8619 14.5947 51.8619 17.2173C51.8619 19.8399 53.6618 21.6655 56.2458 21.6655C58.8813 21.6655 60.6554 19.8785 60.6554 17.2173C60.6554 14.5562 58.8941 12.7563 56.2458 12.7692Z" fill="white"/>
<path d="M70.8497 3.65436H66.6973V24.9566H70.8497V3.65436Z" fill="white"/>
<path d="M77.1105 3.65436H72.958V24.9566H77.1105V3.65436Z" fill="white"/>
<path d="M87.5241 25.1494C82.5617 25.1494 78.9492 21.8198 78.9492 17.2302C78.9492 12.6406 82.5489 9.33667 87.5241 9.33667C89.941 9.33667 92.1394 10.1209 93.695 11.5479C95.2634 12.9749 96.1247 15.0061 96.1247 17.2302C96.1247 19.4671 95.2634 21.4855 93.695 22.9254C92.1394 24.3652 89.941 25.1494 87.5241 25.1494ZM87.5241 12.7692C84.9401 12.7692 83.1402 14.5947 83.1402 17.2173C83.1402 19.8399 84.9401 21.6655 87.5241 21.6655C90.1596 21.6655 91.9337 19.8785 91.9337 17.2173C91.9337 14.5562 90.1596 12.7563 87.5241 12.7692Z" fill="white"/>
<path d="M107.116 9.32382H102.964V24.9566H107.116V9.32382Z" fill="white"/>
<path d="M117.787 25.1494C112.824 25.1494 109.212 21.8198 109.212 17.2302C109.212 12.6406 112.812 9.33667 117.787 9.33667C120.204 9.33667 122.402 10.1209 123.958 11.5479C125.526 12.9749 126.387 15.0061 126.387 17.2302C126.387 19.4671 125.526 21.4855 123.958 22.9254C122.389 24.3652 120.204 25.1494 117.787 25.1494ZM117.787 12.7692C115.203 12.7692 113.403 14.5947 113.403 17.2173C113.403 19.8399 115.203 21.6655 117.787 21.6655C120.422 21.6655 122.196 19.8785 122.196 17.2173C122.196 14.5562 120.422 12.7563 117.787 12.7692Z" fill="white"/>
<path d="M29.0811 30.4975V9.20813H33.2335V10.3395C34.5962 9.65809 36.1132 9.31098 37.6431 9.32383C40.06 9.32383 42.2584 10.108 43.8139 11.5351C45.3824 12.9621 46.2437 14.9933 46.2437 17.2174C46.2437 19.4543 45.3824 21.4727 43.8139 22.9125C42.2455 24.3524 40.06 25.1366 37.6431 25.1366C36.1004 25.1495 34.5834 24.8024 33.2335 24.1081V30.4975H29.0811ZM37.6559 12.7564C35.0719 12.7564 33.2721 14.5819 33.2721 17.2045C33.2721 19.8271 35.0719 21.6527 37.6559 21.6527C40.2914 21.6527 42.0655 19.8657 42.0655 17.2045C42.0655 14.5562 40.2914 12.7564 37.6559 12.7564Z" fill="white"/>
<path d="M98.9782 24.9437C98.6182 24.9437 98.2839 24.8409 97.9882 24.6609C97.6926 24.4809 97.4612 24.211 97.3326 23.8896C97.204 23.581 97.1655 23.2339 97.2298 22.8997C97.294 22.5654 97.474 22.2569 97.7183 22.0255C97.9625 21.7812 98.2839 21.6269 98.631 21.5626C98.9782 21.4984 99.3381 21.5241 99.6595 21.6655C99.9809 21.8069 100.264 22.0126 100.457 22.2954C100.649 22.5783 100.752 22.9125 100.752 23.2468C100.752 23.6967 100.559 24.1338 100.225 24.4552C99.9038 24.7638 99.4538 24.9437 98.9782 24.9437Z" fill="white"/>
<path d="M23.5656 5.37708H19.6445L21.6758 8.74532L23.5656 5.37708Z" fill="white"/>
<path d="M25.7773 18.9272L23.1289 14.5176L14.7597 0.69751L0.142578 24.9438H7.97183C9.01316 24.9438 10.0416 24.6866 10.9544 24.1853C11.8672 23.6839 12.6128 22.9768 13.1528 22.1026L17.1509 15.4175L14.9269 11.7279L10.0931 19.7757C9.82308 20.2256 9.42455 20.5985 8.96173 20.8556C8.49892 21.1127 7.95897 21.2541 7.41902 21.2541H6.82765L14.7597 8.08966L24.9288 24.9438H27.8085V22.2569L25.7773 18.9272Z" fill="white"/>
</g>
<defs>
<clipPath id="clip0_620_1479">
<rect width="126.245" height="29.8" fill="white" transform="translate(0.142578 0.69751)"/>
</clipPath>
</defs>
</svg>
