<svg width="117" height="24" viewBox="0 0 117 24" fill="none" xmlns="http://www.w3.org/2000/svg">
<g clip-path="url(#clip0_620_1491)">
<path d="M8.33794 0.0299377C3.9653 0.0299377 0.387695 3.60755 0.387695 7.98018V22.6351C0.387695 23.1121 0.970713 23.3506 1.26222 23.0061L5.58185 18.6865H11.041C15.4136 18.6865 18.9913 15.1089 18.9913 10.7363V0.0299377H8.33794Z" fill="#C2C2C2"/>
<path d="M5.63541 18.6865H1.63379L4.12486 20.1971L5.63541 18.6865Z" fill="#777777"/>
<path d="M19.0442 0.0299683H8.33789V10.7363L19.0442 0.0299683Z" fill="#E9E9E9"/>
<path d="M8.33794 0.0299377C3.9653 0.0299377 0.387695 3.60755 0.387695 7.98018V18.6865L8.33794 10.7363V0.0299377Z" fill="white"/>
<path d="M19.0442 0.0299683L8.33789 10.7363H19.0442V0.0299683Z" fill="#D1D1D1"/>
<path d="M28.77 15.2679C28.505 15.1089 28.293 14.8174 28.293 14.4464C28.293 13.8899 28.6905 13.4924 29.247 13.4924C29.406 13.4924 29.5915 13.5189 29.724 13.6249C30.5455 14.1284 31.3671 14.3669 32.0296 14.3669C32.7451 14.3669 33.0366 14.1284 33.0366 13.7309V13.7044C33.0366 13.2009 32.2151 12.9889 31.2611 12.7238C30.0685 12.3793 28.717 11.7963 28.717 10.1798V10.1533C28.717 8.43072 30.1215 7.42369 31.8441 7.42369C32.7186 7.42369 33.6461 7.66219 34.4942 8.05971C34.8387 8.21871 35.0772 8.56322 35.0772 8.98723C35.0772 9.54375 34.6267 9.94126 34.0966 9.94126C33.9376 9.94126 33.8316 9.91476 33.6461 9.83526C32.9571 9.49075 32.3211 9.27874 31.8176 9.27874C31.2346 9.27874 30.943 9.54375 30.943 9.86176V9.88826C30.943 10.3653 31.7646 10.6038 32.6656 10.8953C33.8581 11.2928 35.2362 11.8758 35.2362 13.4129V13.4394C35.2362 15.3474 33.8051 16.1955 31.9766 16.1955C30.943 16.2485 29.83 15.9304 28.77 15.2679ZM42.8684 11.8228C42.8684 10.3653 41.9144 9.43775 40.8013 9.43775C39.6883 9.43775 38.7343 10.3918 38.7343 11.7963V11.8228C38.7343 13.2539 39.6883 14.1549 40.8013 14.1549C41.9144 14.2079 42.8684 13.2539 42.8684 11.8228ZM36.3492 8.66922C36.3492 7.9802 36.9057 7.45019 37.5682 7.45019C38.2308 7.45019 38.7873 8.0067 38.7873 8.66922V8.77523C39.3703 7.9802 40.1918 7.37068 41.4374 7.37068C43.4514 7.37068 45.3065 8.93423 45.3065 11.7963V11.8228C45.3065 14.6849 43.4249 16.2485 41.4374 16.2485C40.1388 16.2485 39.3703 15.6654 38.7873 15.0029V17.547C38.7873 18.236 38.2308 18.766 37.5682 18.766C36.9057 18.766 36.3492 18.2095 36.3492 17.547V8.66922ZM59.0869 11.8493C59.0869 10.5508 58.1594 9.46425 56.8343 9.46425C55.4298 9.46425 54.6348 10.5243 54.6348 11.7698V11.7963C54.6348 13.0419 55.5623 14.1284 56.8873 14.1284C58.2389 14.2079 59.0869 13.1214 59.0869 11.8493ZM52.2232 11.8493C52.2232 9.35824 54.1842 7.37068 56.8343 7.37068C59.4844 7.37068 61.419 9.33174 61.419 11.7963V11.8228C61.419 14.2609 59.4579 16.275 56.8078 16.275C54.1842 16.275 52.2232 14.3139 52.2232 11.8493ZM70.3762 14.9764C70.3762 15.6654 69.8197 16.1955 69.1572 16.1955C68.4947 16.1955 67.9382 15.6389 67.9382 14.9764V14.8704C67.3816 15.5859 66.6926 16.222 65.4206 16.222C63.592 16.222 62.532 15.0029 62.532 13.0684V8.66922C62.532 7.9802 63.0885 7.45019 63.751 7.45019C64.4136 7.45019 64.9701 8.0067 64.9701 8.66922V12.2998C64.9701 13.4659 65.5266 14.0224 66.4276 14.0224C67.3551 14.0224 67.9647 13.4394 67.9647 12.2998V8.66922C67.9647 7.9802 68.5212 7.45019 69.1837 7.45019C69.8462 7.45019 70.4027 8.0067 70.4027 8.66922V15.0029H70.3762V14.9764ZM71.5953 13.6514V6.49616C71.5953 5.80714 72.1518 5.27712 72.8143 5.27712C73.4768 5.27712 74.0333 5.83364 74.0333 6.49616V7.55619H75.0934C75.6764 7.55619 76.1004 8.03321 76.1004 8.56322C76.1004 9.14624 75.6234 9.57025 75.0934 9.57025H74.0333V13.2009C74.0333 13.7574 74.2719 14.0224 74.8284 14.0224H75.0934C75.6499 14.0224 76.1004 14.4729 76.1004 15.0294C76.1004 15.4799 75.8354 15.7979 75.4909 15.9569C75.0404 16.1159 74.6429 16.1955 74.0864 16.1955C72.6288 16.2485 71.5953 15.6389 71.5953 13.6514ZM81.1621 16.2485C79.9695 16.2485 78.671 15.7714 77.77 15.0294L78.3795 14.1549C79.254 14.8439 80.261 15.2149 81.2416 15.2149C82.2221 15.2149 82.9376 14.7114 82.9376 13.9164V13.8899C82.9376 13.0684 81.9571 12.7238 80.8971 12.4323C79.5985 12.0613 78.1675 11.6108 78.1675 10.1268V10.1003C78.1675 8.66922 79.36 7.7417 80.9501 7.7417C81.9571 7.7417 83.0701 8.08621 83.9182 8.66922L83.3616 9.59675C82.6196 9.09324 81.7186 8.82823 80.9236 8.82823C79.943 8.82823 79.3335 9.33174 79.3335 10.0208V10.0473C79.3335 10.8158 80.3405 11.1338 81.4536 11.4783C82.6991 11.8493 84.1037 12.3528 84.1037 13.8104V13.8369C84.0772 15.3209 82.7786 16.2485 81.1621 16.2485ZM89.3508 8.77523C87.5488 8.77523 86.3297 10.2063 86.3297 11.9818C86.3297 13.7839 87.6283 15.2149 89.3508 15.2149C91.1264 15.2149 92.3719 13.7839 92.3719 12.0083C92.3719 10.2063 91.0734 8.77523 89.3508 8.77523ZM89.3508 16.275C86.8597 16.275 85.0577 14.3404 85.0577 11.9818C85.0577 9.62325 86.8597 7.66219 89.3773 7.66219C91.8684 7.66219 93.6704 9.59675 93.6704 11.9553C93.6704 14.3139 91.8154 16.275 89.3508 16.275ZM98.7586 16.275C96.347 16.275 94.545 14.3139 94.545 11.9818C94.545 9.62325 96.347 7.66219 98.7586 7.66219C100.322 7.66219 101.303 8.29821 102.045 9.11974L101.223 9.96776C100.587 9.27874 99.8186 8.72223 98.7056 8.72223C97.036 8.72223 95.7375 10.1533 95.7375 11.9288C95.7375 13.7309 97.036 15.1619 98.7586 15.1619C99.8186 15.1619 100.64 14.6584 101.276 13.9429L102.045 14.6849C101.303 15.5859 100.322 16.275 98.7586 16.275ZM103.476 7.8477H104.695V16.0629H103.476V7.8477ZM103.37 4.6941H104.774V6.04564H103.37V4.6941ZM107.345 13.6249C107.345 14.6849 108.299 15.2944 109.412 15.2944C110.949 15.2944 112.168 14.3669 112.168 13.0419V12.2733C111.558 12.1143 110.737 11.9288 109.756 11.9288C108.246 11.9288 107.345 12.5648 107.345 13.6249ZM107.212 9.41125L106.841 8.40422C107.769 8.0067 108.643 7.7152 109.836 7.7152C112.089 7.7152 113.334 8.88123 113.334 11.0013V16.0364H112.142V14.7909C111.558 15.5329 110.604 16.222 109.147 16.222C107.61 16.222 106.099 15.3739 106.099 13.6514C106.099 11.8758 107.53 10.9748 109.624 10.9748C110.684 10.9748 111.426 11.1073 112.168 11.3193V11.0543C112.168 9.57025 111.24 8.80173 109.73 8.80173C108.749 8.82823 108.007 9.06674 107.212 9.41125ZM115.269 4.4556H116.488V16.0894H115.269V4.4556ZM53.0977 6.73467C53.0977 6.73467 52.0377 7.21168 51.1367 7.18518C50.2621 7.15868 49.8116 7.63569 49.8116 7.63569C49.4406 7.9007 49.1226 8.37772 48.8841 8.88123V8.64272C48.8841 7.9537 48.3276 7.42369 47.6651 7.42369C47.0025 7.42369 46.446 7.9802 46.446 8.64272V15.0029C46.446 15.6919 47.0025 16.222 47.6651 16.222C48.3276 16.222 48.8841 15.6654 48.8841 15.0029V11.9818C49.0431 10.6833 49.7056 9.96776 50.7656 9.72926C50.8451 9.72926 50.8716 9.70275 50.9247 9.64975C53.3892 8.96073 53.0977 6.73467 53.0977 6.73467Z" fill="white"/>
</g>
<defs>
<clipPath id="clip0_620_1491">
<rect width="116.1" height="23.1352" fill="white" transform="translate(0.387695 0.0299377)"/>
</clipPath>
</defs>
</svg>
