<svg width="69" height="21" viewBox="0 0 69 21" fill="none" xmlns="http://www.w3.org/2000/svg">
<g clip-path="url(#clip0_620_1499)">
<path fill-rule="evenodd" clip-rule="evenodd" d="M0.487305 5.04944L9.4734 0.397522L18.5573 5.04944L9.4734 9.71765L0.487305 5.04944ZM54.4283 7.31429V7.20024C54.4283 5.66046 55.3327 5.17164 56.8561 5.2857V2.49129C53.2144 2.27132 51.4873 4.0881 51.4873 7.20838V7.32244H49.8416V10.125H51.4873V18.606H54.4365V10.1168H56.1799H56.8643H57.8338V18.5978H60.783V10.1168H63.2108V7.31429H60.783V7.20024C60.783 5.66046 61.671 5.17164 63.2108 5.2857V2.48314C59.5691 2.26318 57.8419 4.07995 57.8419 7.20024V7.31429H56.8724H56.1881H54.4283ZM33.8328 10.3857C34.7697 9.64432 35.34 8.58522 35.34 7.21653C35.34 4.57691 33.1811 2.76829 30.4763 2.76829H24.1868V18.5652H30.9814C33.7514 18.5652 35.9755 16.6996 35.9755 13.9948C35.9347 12.3654 35.1119 11.1108 33.8328 10.3857ZM30.4926 5.70119C31.5028 5.70119 32.2034 6.44257 32.2034 7.44464C32.2034 8.44672 31.4702 9.1881 30.4926 9.1881H27.3397V5.70119H30.4926ZM30.9651 15.6731H27.3397V11.9581H30.9651C32.0405 11.9581 32.8226 12.7483 32.8226 13.8074C32.8226 14.8828 32.0405 15.6731 30.9651 15.6731ZM45.1571 7.298V13.3919C45.1571 15.3553 44.0817 16.1945 42.6397 16.1945C41.3117 16.1945 40.3748 15.4042 40.3748 13.8645V7.298H37.4256V14.2311C37.4256 17.2373 39.3076 18.8993 41.7517 18.8993C43.2914 18.8993 44.4728 18.329 45.1408 17.3188V18.5815H48.09V7.298H45.1571ZM75.3986 14.1333H66.7873C67.2191 15.6242 68.4493 16.2515 69.989 16.2515C71.1459 16.2515 72.0665 15.779 72.5553 15.1272L74.9342 16.4715C73.8751 18.0031 72.1643 18.8911 69.9646 18.8911C66.1274 18.8911 63.7077 16.2922 63.7077 12.9276C63.7077 9.56285 66.1437 6.96397 69.7446 6.96397C73.1175 6.96397 75.529 9.60359 75.529 12.9276C75.5127 13.3756 75.4638 13.7585 75.3986 14.1333ZM69.7283 9.61174C68.1478 9.61174 67.0643 10.4509 66.7303 11.8929H72.5635C72.205 10.2553 70.9667 9.61174 69.7283 9.61174ZM79.7735 9.24512V7.298H76.8243V18.5815H79.7735V13.1883C79.7735 10.8175 81.7044 10.1331 83.2441 10.3205V7.07803C81.8021 7.07803 80.3601 7.71349 79.7735 9.24512ZM9.4734 17.7098L3.34689 14.3859L0.487305 15.9256L9.4734 20.7894L18.5573 15.9256L15.6732 14.3859L9.4734 17.7098ZM3.34689 9.13921L9.4734 12.1536L15.6651 9.13921L18.5491 10.5486L9.46526 14.9724L0.487305 10.5486L3.34689 9.13921Z" fill="white"/>
</g>
<defs>
<clipPath id="clip0_620_1499">
<rect width="82.7568" height="20.4" fill="white" transform="translate(0.487305 0.397522)"/>
</clipPath>
</defs>
</svg>
