<svg width="52" height="42" viewBox="0 0 52 42" fill="none" xmlns="http://www.w3.org/2000/svg">
<path d="M30.7522 12.9708L32.2041 12.1349L32.2566 8.51022L32.2638 8.506L24.4286 3.91762L24.381 3.88989L19.6619 6.73164H19.6613V21.1971L24.3425 23.8147V23.8502L24.3756 23.8328L24.3816 23.8364V23.8297L27.6163 22.1271L27.6037 20.2045L32.2572 17.5297V13.9514L32.2499 13.9556L30.7528 12.9702L30.7522 12.9708ZM27.5115 16.5557L24.475 14.7771V13.1824L27.5229 14.9381L30.6648 13.1287L31.8847 13.9587L27.5115 16.5551V16.5557ZM24.3822 4.10687L31.8985 8.50781L27.5103 11.1476L20.0259 6.73043L24.3822 4.10687ZM24.5263 23.5429L24.4763 18.623L27.4174 20.3124L27.4289 22.0156L24.5263 23.5435V23.5429Z" fill="url(#paint0_linear_2_1608)"/>
<path d="M24.3816 5.75806L22.6524 6.73082L27.5108 9.51049L29.29 8.50699L24.3816 5.75806ZM24.3816 5.97202V7.5059L23.0303 6.73263L24.3816 5.97202Z" fill="url(#paint1_linear_2_1608)"/>
<path d="M29.3124 3.4331C29.3124 3.86705 29.1671 4.17744 28.9302 4.33475V4.33655L28.9085 4.34921C28.8977 4.35644 28.885 4.36368 28.8724 4.3691L28.4764 4.59511C28.6018 4.40707 28.6663 4.15213 28.6663 3.85258C28.6663 2.91116 28.0027 1.76181 27.1872 1.29049C26.9329 1.14343 26.6852 1.07352 26.4628 1.08256L26.8503 0.861969C26.863 0.854736 26.8738 0.847504 26.8865 0.840272L26.9118 0.825807L26.9136 0.829423C27.1679 0.705869 27.5073 0.734196 27.8797 0.951169C28.6705 1.40681 29.3124 2.5182 29.3124 3.4325V3.4331Z" fill="url(#paint2_linear_2_1608)"/>
<path d="M27.1879 1.29025C26.9336 1.14319 26.6859 1.07328 26.4635 1.08232C26.3255 1.08774 26.1965 1.1233 26.0814 1.1896C25.78 1.36378 25.6149 1.72239 25.6149 2.19913C25.6149 3.14055 26.2784 4.28991 27.0939 4.76122C27.3344 4.89924 27.5688 4.96915 27.7804 4.96915C27.9329 4.96915 28.0745 4.93299 28.1999 4.86187C28.3108 4.79738 28.4042 4.70758 28.4759 4.59488C28.6013 4.40683 28.6658 4.15189 28.6658 3.85234C28.6658 2.91092 28.0022 1.76157 27.1867 1.29025H27.1879ZM28.0829 4.71301C27.8461 4.83656 27.5291 4.79558 27.1885 4.6003C26.4249 4.15912 25.8023 3.08149 25.8023 2.19973C25.8023 1.81943 25.9168 1.53435 26.1254 1.38548C26.1416 1.37282 26.1579 1.36197 26.1754 1.35113C26.2724 1.29568 26.3815 1.26856 26.5014 1.26856C26.6823 1.26856 26.8836 1.32943 27.0951 1.45117C27.8587 1.89235 28.4813 2.96999 28.4813 3.85174C28.4813 4.26038 28.3487 4.55992 28.1083 4.69975C28.0992 4.70517 28.092 4.70879 28.0829 4.7124V4.71301Z" fill="#FBFBFB"/>
<path d="M6.84831 27.4408H3.88046C3.31881 27.4408 3.12733 27.7216 3.12733 28.379V30.8745C3.12733 30.9894 3.06989 31.0469 2.95501 31.0469H0.510527C0.395643 31.0469 0.344584 30.9894 0.344584 30.8745V28.4939C0.344584 27.4408 0.944534 26.694 2.21464 26.694H6.84831C6.96319 26.694 7.01425 26.7515 7.01425 26.86V27.2685C7.01425 27.3833 6.96319 27.4408 6.84831 27.4408ZM6.81001 29.0492H3.75281C3.63793 29.0492 3.58049 28.9917 3.58049 28.8832V28.4684C3.58049 28.3599 3.63793 28.3024 3.75281 28.3024H6.81001C6.9249 28.3024 6.98234 28.3407 6.98234 28.4173V28.9343C6.98234 29.0109 6.9249 29.0492 6.81001 29.0492ZM15.0501 31.0469H12.3759C12.2291 31.0469 12.1269 31.0022 12.044 30.9192L9.57396 28.3599L7.62093 30.2937H10.5186C10.6335 30.2937 10.6909 30.3512 10.6909 30.4661V30.8745C10.6909 30.9894 10.6335 31.0469 10.5186 31.0469H6.29976C6.22956 31.0469 6.1785 31.0022 6.1785 30.9384C6.1785 30.9128 6.19126 30.8682 6.22956 30.8363L10.2314 26.8153C10.3079 26.7387 10.3973 26.694 10.4994 26.694H10.9207C11.0355 26.694 11.1249 26.7387 11.2015 26.8153L15.1458 30.8235C15.1841 30.8618 15.1969 30.9128 15.1969 30.9448C15.1969 31.0022 15.1522 31.0469 15.0501 31.0469ZM22.9254 31.0469H22.485C22.2297 31.0469 22.0765 31.0213 21.7957 30.9192L16.7089 29.0173V30.8745C16.7089 30.9894 16.6515 31.0469 16.5366 31.0469H15.7132C15.5984 31.0469 15.5409 30.9894 15.5409 30.8745V26.86C15.5409 26.7515 15.5984 26.694 15.7132 26.694H16.4983C16.7791 26.694 16.9068 26.7068 17.1812 26.8153L21.9297 28.6471V26.86C21.9297 26.7515 21.9872 26.694 22.1021 26.694H22.9254C23.0403 26.694 23.0977 26.7515 23.0977 26.86V30.8745C23.0977 30.9894 23.0403 31.0469 22.9254 31.0469ZM27.8669 31.0469H25.5756C25.4926 31.0469 25.4543 31.0213 25.4543 30.9639V27.4408H23.5906C23.5077 27.4408 23.4694 27.4216 23.4694 27.3706V26.777C23.4694 26.7196 23.5077 26.694 23.5906 26.694H29.8518C29.9348 26.694 29.9731 26.7196 29.9731 26.777V27.3706C29.9731 27.4216 29.9348 27.4408 29.8518 27.4408H27.9818V30.9639C27.9818 31.0213 27.9435 31.0469 27.8669 31.0469ZM37.7751 31.0469H35.1009C34.9541 31.0469 34.852 31.0022 34.769 30.9192L32.299 28.3599L30.346 30.2937H33.2436C33.3585 30.2937 33.4159 30.3512 33.4159 30.4661V30.8745C33.4159 30.9894 33.3585 31.0469 33.2436 31.0469H29.0248C28.9546 31.0469 28.9035 31.0022 28.9035 30.9384C28.9035 30.9128 28.9163 30.8682 28.9546 30.8363L32.9564 26.8153C33.033 26.7387 33.1223 26.694 33.2244 26.694H33.6457C33.7606 26.694 33.8499 26.7387 33.9265 26.8153L37.8709 30.8235C37.9092 30.8618 37.9219 30.9128 37.9219 30.9448C37.9219 31.0022 37.8773 31.0469 37.7751 31.0469ZM43.1613 31.0469H38.3425C38.234 31.0469 38.1766 30.9894 38.1766 30.8745V30.4661C38.1766 30.3512 38.234 30.2937 38.3425 30.2937H41.9231L38.9169 28.8832C38.2659 28.5769 38.1383 28.2258 38.1383 27.7663C38.1383 27.1983 38.5531 26.694 39.3765 26.694H44.074C44.1889 26.694 44.2463 26.7515 44.2463 26.86V27.2685C44.2463 27.3833 44.1889 27.4408 44.074 27.4408H40.6147L43.6144 28.8513C44.2718 29.1577 44.3931 29.5087 44.3931 29.9746C44.3931 30.5427 43.9782 31.0469 43.1613 31.0469ZM49.3081 31.0469H47.1126C47.0041 31.0469 46.9466 30.9894 46.9466 30.8745V29.3555L44.6553 26.911C44.617 26.8727 44.5979 26.8345 44.5979 26.7962C44.5979 26.7323 44.6617 26.694 44.7255 26.694H47.2977C47.4125 26.694 47.5083 26.7387 47.5849 26.8217L49.2826 28.6854L51.0505 26.8153C51.1399 26.7196 51.2037 26.694 51.3314 26.694H51.7016C51.7845 26.694 51.8228 26.7387 51.8228 26.7898C51.8228 26.8153 51.8101 26.8536 51.7909 26.8727L49.4805 29.3172V30.8745C49.4805 30.9894 49.423 31.0469 49.3081 31.0469Z" fill="#F9FFF8"/>
<path d="M10.7584 35.5611H6.08176C5.19673 35.5611 4.89501 36.0036 4.89501 37.0395V40.9719C4.89501 41.1529 4.80449 41.2434 4.62346 41.2434H0.771556C0.590527 41.2434 0.510069 41.1529 0.510069 40.9719V37.2205C0.510069 35.5611 1.45545 34.3844 3.45683 34.3844H10.7584C10.9394 34.3844 11.0198 34.4749 11.0198 34.6459V35.2895C11.0198 35.4706 10.9394 35.5611 10.7584 35.5611ZM10.698 38.0955H5.88062C5.69959 38.0955 5.60907 38.005 5.60907 37.834V37.1803C5.60907 37.0093 5.69959 36.9188 5.88062 36.9188H10.698C10.879 36.9188 10.9696 36.9792 10.9696 37.0998V37.9145C10.9696 38.0352 10.879 38.0955 10.698 38.0955ZM19.2815 41.2434H15.0575C12.5834 41.2434 11.628 40.0164 11.628 38.0854V34.6459C11.628 34.4749 11.7084 34.3844 11.8895 34.3844H15.6509C15.8218 34.3844 15.9124 34.4749 15.9124 34.6459V38.0854C15.9124 39.3124 16.4152 40.0567 17.5517 40.0567H19.2815C20.428 40.0567 20.9611 39.3124 20.9611 38.0854V34.6459C20.9611 34.4749 21.0516 34.3844 21.2326 34.3844H22.4395C22.6205 34.3844 22.711 34.4749 22.711 34.6459V38.0854C22.711 39.8455 21.6248 41.2434 19.2815 41.2434ZM31.3348 41.2434H23.7417C23.5707 41.2434 23.4802 41.1529 23.4802 40.9719V40.3282C23.4802 40.1472 23.5707 40.0567 23.7417 40.0567H29.3837L24.6468 37.834C23.621 37.3513 23.4198 36.7981 23.4198 36.074C23.4198 35.1789 24.0735 34.3844 25.3709 34.3844H32.773C32.9541 34.3844 33.0446 34.4749 33.0446 34.6459V35.2895C33.0446 35.4706 32.9541 35.5611 32.773 35.5611H27.322L32.0489 37.7837C33.0848 38.2665 33.2759 38.8196 33.2759 39.5538C33.2759 40.4489 32.6222 41.2434 31.3348 41.2434ZM37.8829 41.2434H34.4132C34.2422 41.2434 34.1517 41.1529 34.1517 40.9719V34.6459C34.1517 34.4749 34.2422 34.3844 34.4132 34.3844H37.8829C38.0539 34.3844 38.1444 34.4749 38.1444 34.6459V40.9719C38.1444 41.1529 38.0539 41.2434 37.8829 41.2434ZM47.3236 41.2434H42.3956C40.4344 41.2434 39.0867 39.7549 39.0867 37.8139C39.0867 35.8226 40.4042 34.3844 42.3956 34.3844H47.3236C49.325 34.3844 50.6425 35.8527 50.6425 37.8139C50.6425 39.7449 49.3049 41.2434 47.3236 41.2434ZM46.6296 38.2262V37.13C46.6296 35.893 46.3179 35.5611 45.4429 35.5611H44.0751C43.2806 35.5611 42.9688 35.9131 42.9688 37.13V38.2262C42.9688 39.584 43.3108 40.0567 44.0751 40.0567H45.4429C46.2676 40.0567 46.6296 39.594 46.6296 38.2262Z" fill="#F9FFF8"/>
<defs>
<linearGradient id="paint0_linear_2_1608" x1="19.6613" y1="13.8701" x2="32.2644" y2="13.8701" gradientUnits="userSpaceOnUse">
<stop stop-color="white"/>
<stop offset="1" stop-color="white"/>
</linearGradient>
<linearGradient id="paint1_linear_2_1608" x1="22.6518" y1="7.63427" x2="29.2894" y2="7.63427" gradientUnits="userSpaceOnUse">
<stop stop-color="white"/>
<stop offset="1" stop-color="white"/>
</linearGradient>
<linearGradient id="paint2_linear_2_1608" x1="26.4634" y1="2.6755" x2="29.3124" y2="2.6755" gradientUnits="userSpaceOnUse">
<stop stop-color="white"/>
<stop offset="1" stop-color="white"/>
</linearGradient>
</defs>
</svg>
