<svg width="77" height="36" viewBox="0 0 77 36" fill="none" xmlns="http://www.w3.org/2000/svg">
<path d="M14.5189 16.3481L16.4044 15.2635L16.4725 10.5605L16.4819 10.5551L6.30676 4.60175L6.24493 4.56577L0.116383 8.25288H0.115601V27.0215L6.19484 30.4177V30.4639L6.23789 30.4412L6.24571 30.4459V30.4373L10.4465 28.2282L10.43 25.7336L16.4733 22.2631V17.6204L16.4639 17.6259L14.5196 16.3473L14.5189 16.3481ZM10.3103 20.9994L6.36703 18.6917V16.6226L10.3251 18.9005L14.4054 16.553L15.9896 17.6298L10.3103 20.9986V20.9994ZM6.2465 4.84729L16.0076 10.5574L10.3087 13.9826L0.589135 8.25132L6.2465 4.84729ZM6.43356 30.0651L6.3686 23.6816L10.1882 25.8736L10.203 28.0835L6.43356 30.0658V30.0651Z" fill="white"/>
<path d="M6.24568 6.98921L4.00012 8.25135L10.3095 11.8579L12.62 10.5559L6.24568 6.98921ZM6.24568 7.26682V9.257L4.49087 8.2537L6.24568 7.26682Z" fill="white"/>
<path d="M12.649 3.97303C12.649 4.53607 12.4604 4.9388 12.1528 5.1429V5.14524L12.1246 5.16166C12.1105 5.17105 12.0941 5.18043 12.0776 5.18747L11.5634 5.48072C11.7262 5.23674 11.8099 4.90595 11.8099 4.5173C11.8099 3.29582 10.9482 1.80456 9.88918 1.19304C9.55888 1.00223 9.23719 0.911522 8.94838 0.923251L9.45165 0.637041C9.46809 0.627657 9.48218 0.618273 9.49862 0.60889L9.53149 0.590122L9.53384 0.594814C9.86414 0.434505 10.3048 0.471258 10.7885 0.752777C11.8154 1.34396 12.649 2.78596 12.649 3.97225V3.97303Z" fill="white"/>
<path d="M9.88997 1.19303C9.55967 1.00222 9.23798 0.911511 8.94917 0.92324C8.76993 0.930278 8.60243 0.976416 8.45293 1.06244C8.06158 1.28843 7.84712 1.75372 7.84712 2.37228C7.84712 3.59375 8.70888 5.08502 9.76787 5.69654C10.0802 5.87561 10.3846 5.96633 10.6594 5.96633C10.8574 5.96633 11.0413 5.91941 11.2041 5.82713C11.3481 5.74346 11.4695 5.62694 11.5626 5.48071C11.7254 5.23672 11.8092 4.90594 11.8092 4.51729C11.8092 3.29581 10.9474 1.80455 9.88841 1.19303H9.88997ZM11.0523 5.63398C10.7447 5.79429 10.333 5.74111 9.89076 5.48774C8.89907 4.91532 8.09054 3.51712 8.09054 2.37306C8.09054 1.87962 8.23926 1.50974 8.51007 1.31658C8.53121 1.30016 8.55234 1.28609 8.57504 1.27201C8.70105 1.20007 8.84272 1.16488 8.99848 1.16488C9.23329 1.16488 9.49471 1.24386 9.76944 1.40182C10.7611 1.97424 11.5696 3.37245 11.5696 4.51651C11.5696 5.0467 11.3975 5.43535 11.0852 5.61677C11.0734 5.62381 11.064 5.6285 11.0523 5.6332V5.63398Z" fill="white"/>
<path d="M33.4884 13.7237H25.5448V20.3574H33.2035V21.5421H25.5448V29.1227H24.2878V12.539H33.4876V13.7237H33.4884Z" fill="white"/>
<path d="M44.8704 17.2779H46.0562V29.1228H44.8704V26.8722C44.0165 28.5464 42.6022 29.3832 40.6259 29.3832C39.2186 29.3832 38.1001 28.9531 37.2704 28.0921C36.4408 27.2311 36.0259 26.0824 36.0259 24.6451V17.2771H37.2352V24.6451C37.2352 25.7508 37.5389 26.6274 38.1478 27.2749C38.756 27.9224 39.6138 28.2462 40.7206 28.2462C41.9377 28.2462 42.9333 27.8434 43.7081 27.038C44.4822 26.2325 44.8697 25.0642 44.8697 23.5315V17.2771L44.8704 17.2779Z" fill="white"/>
<path d="M50.5137 20.3441C50.5137 20.9188 50.7611 21.3693 51.2565 21.6954C51.752 22.0215 52.3515 22.2772 53.0552 22.4617C53.758 22.6463 54.4656 22.8324 55.1771 23.0193C55.8885 23.2062 56.4865 23.5471 56.971 24.0406C57.4555 24.5348 57.6982 25.194 57.6982 26.019C57.6982 26.9989 57.3068 27.8043 56.5241 28.4354C55.7414 29.0672 54.7176 29.3832 53.4536 29.3832C52.3155 29.3832 51.3551 29.1423 50.5724 28.6606C49.7897 28.1789 49.2481 27.5439 48.9483 26.7533L49.9674 26.1613C50.1889 26.8088 50.6038 27.3187 51.2127 27.6894C51.8209 28.0608 52.5683 28.2461 53.4536 28.2461C54.3388 28.2461 55.0698 28.053 55.6467 27.6659C56.2235 27.2796 56.5124 26.7314 56.5124 26.0206C56.5124 25.4364 56.2674 24.9711 55.7766 24.6239C55.2859 24.2767 54.6894 24.0109 53.9858 23.8255C53.2822 23.6402 52.5754 23.4549 51.8639 23.2672C51.1524 23.0803 50.5521 22.7495 50.0621 22.2756C49.5722 21.8017 49.3272 21.1706 49.3272 20.3801C49.3272 19.4323 49.7029 18.6354 50.4535 17.9871C51.2041 17.3397 52.1723 17.0159 53.3581 17.0159C54.3067 17.0159 55.1325 17.2294 55.8361 17.6556C56.5398 18.0818 57.0571 18.6589 57.3898 19.3846L56.3942 19.9531C56.157 19.3689 55.7617 18.9224 55.2084 18.6143C54.655 18.3062 54.0382 18.1521 53.3589 18.1521C52.5527 18.1521 51.8772 18.35 51.3317 18.7465C50.7861 19.1422 50.5137 19.6747 50.5137 20.3425V20.3441Z" fill="white"/>
<path d="M61.7056 14.1389C61.5161 14.3203 61.2946 14.411 61.0418 14.411C60.789 14.411 60.5675 14.3203 60.3781 14.1389C60.1879 13.9575 60.0932 13.7323 60.0932 13.464C60.0932 13.2115 60.1879 12.9941 60.3781 12.8126C60.5675 12.6312 60.789 12.5405 61.0418 12.5405C61.2946 12.5405 61.5161 12.6312 61.7056 12.8126C61.895 12.9941 61.9905 13.2115 61.9905 13.464C61.9905 13.7331 61.8957 13.9575 61.7056 14.1389ZM60.4493 29.1227V17.2778H61.6351V29.1227H60.4493Z" fill="white"/>
<path d="M70.716 29.3832C68.9769 29.3832 67.5031 28.7873 66.2938 27.5947C65.0845 26.4022 64.4803 24.9375 64.4803 23.1999C64.4803 21.4623 65.0845 19.9977 66.2938 18.8051C67.5031 17.6126 68.9769 17.0159 70.716 17.0159C72.4552 17.0159 73.9055 17.6126 75.1148 18.8051C76.3241 19.9977 76.9283 21.4623 76.9283 23.1999C76.9283 24.9375 76.3241 26.4022 75.1148 27.5947C73.9055 28.7873 72.4388 29.3832 70.716 29.3832ZM67.1477 26.7776C68.1198 27.7566 69.3095 28.2461 70.716 28.2461C72.1225 28.2461 73.3083 27.7566 74.2726 26.7776C75.2369 25.7985 75.7191 24.606 75.7191 23.1999C75.7191 21.7939 75.2369 20.6021 74.2726 19.6223C73.3083 18.6432 72.1225 18.1537 70.716 18.1537C69.3095 18.1537 68.1198 18.6432 67.1477 19.6223C66.1756 20.6014 65.6895 21.7939 65.6895 23.1999C65.6895 24.606 66.1756 25.7985 67.1477 26.7776Z" fill="white"/>
<path d="M51.1496 33.7274C51.3425 33.8386 51.439 34.0063 51.439 34.2307C51.439 34.4174 51.3729 34.5705 51.2408 34.69C51.1087 34.8096 50.9461 34.8694 50.7532 34.8694H49.8188V32.6672H50.6871C50.8759 32.6672 51.0342 32.726 51.1622 32.8434C51.2922 32.9587 51.3572 33.1066 51.3572 33.287C51.3572 33.4694 51.288 33.6162 51.1496 33.7274ZM50.6871 33.073H50.253V33.5575H50.6871C50.7542 33.5575 50.8098 33.5345 50.8539 33.4883C50.9 33.4422 50.9231 33.3845 50.9231 33.3153C50.9231 33.2461 50.901 33.1884 50.857 33.1423C50.813 33.0961 50.7563 33.073 50.6871 33.073ZM50.7532 34.4635C50.8266 34.4635 50.8874 34.4394 50.9356 34.3912C50.9839 34.3409 51.008 34.2779 51.008 34.2024C51.008 34.129 50.9839 34.0682 50.9356 34.02C50.8874 33.9696 50.8266 33.9445 50.7532 33.9445H50.253V34.4635H50.7532Z" fill="white"/>
<path d="M52.6842 33.2964H53.1183L52.5458 34.8694C52.464 35.0959 52.3549 35.2595 52.2186 35.3601C52.0844 35.4629 51.9166 35.509 51.7153 35.4985V35.121C51.8243 35.1231 51.9103 35.1001 51.9732 35.0518C52.0382 35.0036 52.0896 34.926 52.1274 34.819L51.4825 33.2964H51.926L52.335 34.3534L52.6842 33.2964Z" fill="white"/>
<path d="M55.4475 33.7274C55.6405 33.8386 55.737 34.0063 55.737 34.2307C55.737 34.4174 55.6709 34.5705 55.5388 34.69C55.4067 34.8096 55.2441 34.8694 55.0512 34.8694H54.1168V32.6672H54.9851C55.1739 32.6672 55.3322 32.726 55.4601 32.8434C55.5902 32.9587 55.6552 33.1066 55.6552 33.287C55.6552 33.4694 55.586 33.6162 55.4475 33.7274ZM54.9851 33.073H54.551V33.5575H54.9851C55.0522 33.5575 55.1078 33.5345 55.1518 33.4883C55.198 33.4422 55.221 33.3845 55.221 33.3153C55.221 33.2461 55.199 33.1884 55.155 33.1423C55.1109 33.0961 55.0543 33.073 54.9851 33.073ZM55.0512 34.4635C55.1246 34.4635 55.1854 34.4394 55.2336 34.3912C55.2819 34.3409 55.306 34.2779 55.306 34.2024C55.306 34.129 55.2819 34.0682 55.2336 34.02C55.1854 33.9696 55.1246 33.9445 55.0512 33.9445H54.551V34.4635H55.0512Z" fill="white"/>
<path d="M56.4557 34.4541H57.2957V34.8694H56.0216V32.6672H56.4557V34.4541Z" fill="white"/>
<path d="M59.2601 34.5831C59.0378 34.8033 58.7672 34.9134 58.4484 34.9134C58.1296 34.9134 57.8591 34.8033 57.6368 34.5831C57.4166 34.3608 57.3065 34.0892 57.3065 33.7683C57.3065 33.4474 57.4166 33.1769 57.6368 32.9566C57.8591 32.7343 58.1296 32.6232 58.4484 32.6232C58.7672 32.6232 59.0378 32.7343 59.2601 32.9566C59.4824 33.1769 59.5935 33.4474 59.5935 33.7683C59.5935 34.0892 59.4824 34.3608 59.2601 34.5831ZM57.9419 34.2874C58.0783 34.4216 58.2471 34.4887 58.4484 34.4887C58.6498 34.4887 58.8186 34.4216 58.9549 34.2874C59.0912 34.151 59.1594 33.978 59.1594 33.7683C59.1594 33.5586 59.0912 33.3855 58.9549 33.2492C58.8186 33.1129 58.6498 33.0447 58.4484 33.0447C58.2471 33.0447 58.0783 33.1129 57.9419 33.2492C57.8056 33.3855 57.7374 33.5586 57.7374 33.7683C57.7374 33.978 57.8056 34.151 57.9419 34.2874Z" fill="white"/>
<path d="M60.9431 34.9134C60.6117 34.9134 60.3381 34.8033 60.122 34.5831C59.906 34.3629 59.798 34.0913 59.798 33.7683C59.798 33.4432 59.906 33.1716 60.122 32.9535C60.3381 32.7333 60.6117 32.6232 60.9431 32.6232C61.1424 32.6232 61.3259 32.6704 61.4936 32.7647C61.6635 32.857 61.7957 32.9829 61.89 33.1423L61.5157 33.3593C61.4611 33.2608 61.3835 33.1842 61.2829 33.1297C61.1822 33.073 61.069 33.0447 60.9431 33.0447C60.7292 33.0447 60.5562 33.1118 60.424 33.2461C60.294 33.3803 60.229 33.5544 60.229 33.7683C60.229 33.9801 60.294 34.1531 60.424 34.2874C60.5562 34.4216 60.7292 34.4887 60.9431 34.4887C61.069 34.4887 61.1822 34.4614 61.2829 34.4069C61.3856 34.3503 61.4632 34.2737 61.5157 34.1773L61.89 34.3943C61.7957 34.5537 61.6646 34.6806 61.4968 34.775C61.329 34.8673 61.1445 34.9134 60.9431 34.9134Z" fill="white"/>
<path d="M63.8775 34.8694H63.3773L62.5909 33.8375V34.8694H62.1567V32.6672H62.5909V33.6393L63.3459 32.6672H63.8461L63.0313 33.7368L63.8775 34.8694Z" fill="white"/>
<path d="M66.066 33.6865V33.8564C66.066 34.171 65.9654 34.4258 65.764 34.6208C65.5627 34.8159 65.3026 34.9134 64.9838 34.9134C64.6441 34.9134 64.362 34.8033 64.1376 34.5831C63.9153 34.3608 63.8041 34.0902 63.8041 33.7714C63.8041 33.4506 63.9142 33.179 64.1344 32.9566C64.3568 32.7343 64.6315 32.6232 64.9587 32.6232C65.1642 32.6232 65.3519 32.6704 65.5218 32.7647C65.6917 32.857 65.8238 32.9808 65.9182 33.136L65.547 33.3499C65.4945 33.2597 65.4148 33.1863 65.3079 33.1297C65.203 33.073 65.0856 33.0447 64.9555 33.0447C64.7458 33.0447 64.5728 33.1139 64.4364 33.2524C64.3022 33.3887 64.2351 33.5617 64.2351 33.7714C64.2351 33.9791 64.3033 34.151 64.4396 34.2874C64.578 34.4216 64.7605 34.4887 64.987 34.4887C65.1548 34.4887 65.2932 34.452 65.4022 34.3786C65.5134 34.3031 65.5889 34.2003 65.6288 34.0703H64.9618V33.6865H66.066Z" fill="white"/>
<path d="M67.1805 34.9134C66.9352 34.9134 66.7338 34.8442 66.5765 34.7058C66.4192 34.5674 66.3406 34.3817 66.3406 34.1489V32.6672H66.7716V34.1143C66.7716 34.2297 66.8041 34.3209 66.8691 34.388C66.9362 34.4552 67.04 34.4887 67.1805 34.4887C67.3211 34.4887 67.4238 34.4552 67.4888 34.388C67.556 34.3209 67.5895 34.2297 67.5895 34.1143V32.6672H68.0237V34.1489C68.0237 34.3817 67.945 34.5674 67.7877 34.7058C67.6304 34.8442 67.428 34.9134 67.1805 34.9134Z" fill="white"/>
<path d="M69.769 34.8694L69.6368 34.473H68.7591L68.627 34.8694H68.1583L68.929 32.6672H69.467L70.2409 34.8694H69.769ZM68.8975 34.0672H69.5016L69.1996 33.1674L68.8975 34.0672Z" fill="white"/>
<path d="M71.6627 34.8694L71.2191 34.1049H70.8888V34.8694H70.4547V32.6672H71.3355C71.539 32.6672 71.712 32.7385 71.8546 32.8811C71.9972 33.0238 72.0685 33.1957 72.0685 33.3971C72.0685 33.5334 72.0297 33.6603 71.9521 33.7777C71.8745 33.8931 71.7718 33.9801 71.6438 34.0388L72.1314 34.8694H71.6627ZM70.8888 33.073V33.7243H71.3355C71.4173 33.7243 71.4876 33.6928 71.5463 33.6299C71.605 33.5649 71.6344 33.4873 71.6344 33.3971C71.6344 33.3069 71.605 33.2303 71.5463 33.1674C71.4876 33.1045 71.4173 33.073 71.3355 33.073H70.8888Z" fill="white"/>
<path d="M73.2616 32.6672C73.5637 32.6672 73.8153 32.7731 74.0167 32.985C74.2201 33.1968 74.3218 33.4579 74.3218 33.7683C74.3218 34.0787 74.2201 34.3398 74.0167 34.5516C73.8153 34.7635 73.5637 34.8694 73.2616 34.8694H72.3871V32.6672H73.2616ZM73.2616 34.4541C73.4525 34.4541 73.6077 34.3912 73.7272 34.2654C73.8468 34.1374 73.9066 33.9717 73.9066 33.7683C73.9066 33.5649 73.8468 33.4002 73.7272 33.2744C73.6077 33.1465 73.4525 33.0825 73.2616 33.0825H72.8212V34.4541H73.2616Z" fill="white"/>
</svg>
