<svg width="45" height="45" viewBox="0 0 45 45" fill="none" xmlns="http://www.w3.org/2000/svg">
<path d="M22.5 2.8125C11.6279 2.8125 2.8125 11.6279 2.8125 22.5C2.8125 33.3721 11.6279 42.1875 22.5 42.1875C33.3721 42.1875 42.1875 33.3721 42.1875 22.5C42.1875 11.6279 33.3721 2.8125 22.5 2.8125ZM31.9614 17.6528C31.9746 17.8594 31.9746 18.0747 31.9746 18.2856C31.9746 24.7368 27.0615 32.168 18.0835 32.168C15.3149 32.168 12.7485 31.3638 10.5864 29.9795C10.9819 30.0234 11.3599 30.041 11.7642 30.041C14.0493 30.041 16.1499 29.2676 17.8242 27.958C15.6797 27.9141 13.8779 26.5078 13.2627 24.5742C14.0142 24.6841 14.6909 24.6841 15.4644 24.4863C14.3601 24.262 13.3676 23.6623 12.6554 22.7891C11.9433 21.9159 11.5554 20.8231 11.5576 19.6963V19.6348C12.2036 19.9995 12.9639 20.2236 13.7593 20.2544C13.0906 19.8088 12.5422 19.205 12.1628 18.4967C11.7833 17.7884 11.5845 16.9974 11.584 16.1938C11.584 15.2842 11.8213 14.4536 12.2476 13.7329C13.4732 15.2417 15.0026 16.4757 16.7364 17.3547C18.4702 18.2337 20.3696 18.7381 22.311 18.835C21.6211 15.5171 24.0996 12.832 27.0791 12.832C28.4854 12.832 29.751 13.4209 30.6431 14.3701C31.7461 14.1636 32.8008 13.7505 33.7412 13.1968C33.3765 14.3262 32.6118 15.2798 31.5967 15.8818C32.5811 15.7764 33.5303 15.5039 34.4092 15.1216C33.7456 16.0972 32.915 16.9629 31.9614 17.6528Z" fill="#B3063C"/>
</svg>
