<svg width="23" height="32" viewBox="0 0 23 32" fill="none" xmlns="http://www.w3.org/2000/svg">
<path d="M18.1818 13.5917L17.516 13.2625C17.2917 13.1519 17.2347 13.0075 17.3353 12.7457C17.4566 12.426 17.5888 12.1116 17.7161 11.7945C17.8665 11.3951 17.8725 10.9458 17.7331 10.5384C17.5936 10.1309 17.3196 9.79629 16.9655 9.602C16.7435 9.49271 16.5119 9.41445 16.2864 9.31056C15.9905 9.17428 15.9396 9.04341 16.062 8.72903C16.2512 8.2433 16.4525 7.75353 16.6477 7.2651C16.7508 7.00604 16.9012 6.93993 17.1364 7.05327C17.5912 7.2705 18.0423 7.49447 18.491 7.72384C18.7262 7.83988 18.7748 7.99909 18.6717 8.26894C18.5613 8.56173 18.4388 8.85046 18.32 9.14865C18.1878 9.4954 18.1599 9.88264 18.24 10.251C18.3212 10.6193 18.5055 10.9512 18.7687 11.1982C18.9724 11.3776 19.2101 11.5071 19.4635 11.5746C19.58 11.6097 19.6927 11.6609 19.7994 11.7271C19.9862 11.8417 20.0468 12.0104 19.9632 12.2222C19.7606 12.7457 19.5545 13.2679 19.3386 13.7847C19.2538 13.9951 19.0949 14.0532 18.8948 13.9506C18.6559 13.8278 18.4207 13.7131 18.1818 13.5958V13.5917Z" fill="#B3063C"/>
<path d="M12.238 9.61191L11.5755 9.29637C11.3519 9.19029 11.2933 9.04612 11.3877 8.77955C11.5014 8.45449 11.6257 8.13488 11.7453 7.81118C11.8852 7.40452 11.8828 6.95298 11.7381 6.54496C11.5934 6.1383 11.316 5.80644 10.9644 5.62011C10.7444 5.51539 10.5136 5.44195 10.2887 5.34402C9.99454 5.21481 9.94192 5.08425 10.0555 4.76327C10.2325 4.26821 10.4215 3.77042 10.6044 3.274C10.7013 3.01151 10.8484 2.94078 11.0816 3.04823C11.5336 3.25632 11.9821 3.47121 12.4294 3.69154C12.6626 3.80307 12.7152 3.96219 12.6183 4.23693C12.5143 4.53478 12.4007 4.82856 12.2882 5.13185C12.1639 5.48547 12.1447 5.87445 12.2308 6.24438C12.3169 6.61432 12.5059 6.94346 12.7702 7.18555C12.9747 7.36236 13.2115 7.48612 13.4626 7.54733C13.5786 7.57997 13.691 7.62893 13.7963 7.69285C13.9828 7.80302 14.045 7.97303 13.9673 8.18792C13.7771 8.72106 13.5846 9.25149 13.3813 9.77647C13.3024 9.99137 13.1469 10.0526 12.9472 9.95464C12.7104 9.83632 12.4748 9.72751 12.238 9.61463V9.61191Z" fill="#B3063C"/>
<path d="M4.00249 6.16549V6.91743C4.00249 7.17142 4.09921 7.27902 4.35755 7.28277C4.67221 7.28903 4.98687 7.28277 5.30275 7.28277C5.69577 7.29153 6.07042 7.45543 6.3508 7.74069C6.63118 8.02596 6.79647 8.41006 6.81238 8.81669C6.81238 9.06692 6.78177 9.31465 6.77443 9.56613C6.76586 9.89518 6.85279 9.99277 7.165 9.99778C7.64617 10.0028 8.13469 9.99778 8.61953 9.99778C8.87665 9.99778 8.99296 9.88142 8.99541 9.61742C9.00153 9.1082 9.00153 8.59773 8.99541 8.08851C8.99541 7.82327 8.88399 7.71692 8.61708 7.71192C8.32814 7.70566 8.04041 7.71192 7.74412 7.71192C7.4013 7.70566 7.07072 7.5868 6.79769 7.3716C6.52466 7.1564 6.32631 6.85738 6.22959 6.51706C6.16347 6.25682 6.1549 5.98532 6.20265 5.72008C6.22102 5.59621 6.22592 5.4711 6.21367 5.34723C6.19531 5.12828 6.08022 5.00817 5.87085 5.00567C5.35295 4.99941 4.83627 4.99691 4.3196 5.00567C4.11023 5.00567 3.99759 5.13454 4.00004 5.361C4.00371 5.63125 4.00249 5.89774 4.00249 6.16674V6.16549Z" fill="#B3063C"/>
<path d="M18.61 16.7706L18.2909 17.4334C18.1837 17.6575 18.0397 17.715 17.7736 17.6204C17.4505 17.5053 17.13 17.3795 16.8082 17.2596C16.4036 17.117 15.9515 17.1182 15.5442 17.2632C15.1369 17.407 14.8056 17.6839 14.6168 18.0362C14.5109 18.2568 14.4376 18.4869 14.3371 18.7122C14.2068 19.0058 14.0751 19.0585 13.756 18.9435C13.2632 18.7637 12.7662 18.5732 12.272 18.3886C12.01 18.2903 11.9407 18.1429 12.0493 17.9092C12.2584 17.4574 12.4757 17.0079 12.697 16.5597C12.8097 16.326 12.9685 16.2745 13.2428 16.3715C13.5401 16.477 13.8321 16.5921 14.1348 16.7047C14.4865 16.8306 14.8762 16.8521 15.2455 16.7658C15.6148 16.6807 15.9447 16.4926 16.1878 16.2289C16.3643 16.024 16.4892 15.7879 16.553 15.5362C16.5856 15.4199 16.6358 15.3085 16.6996 15.203C16.811 15.0172 16.9793 14.9549 17.1952 15.0328C17.7261 15.2246 18.2556 15.4199 18.7783 15.6249C18.9929 15.7052 19.0526 15.861 18.9535 16.0599C18.8354 16.2972 18.724 16.5321 18.61 16.7694V16.7706Z" fill="#B3063C"/>
<path d="M4.00249 15.1655V15.9174C4.00249 16.1714 4.09921 16.279 4.35755 16.2828C4.67221 16.289 4.98687 16.2828 5.30275 16.2828C5.69577 16.2915 6.07042 16.4554 6.3508 16.7407C6.63118 17.026 6.79647 17.4101 6.81238 17.8167C6.81238 18.0669 6.78177 18.3146 6.77443 18.5661C6.76586 18.8952 6.85279 18.9928 7.165 18.9978C7.64617 19.0028 8.13469 18.9978 8.61953 18.9978C8.87665 18.9978 8.99296 18.8814 8.99541 18.6174C9.00153 18.1082 9.00153 17.5977 8.99541 17.0885C8.99541 16.8233 8.88399 16.7169 8.61708 16.7119C8.32814 16.7057 8.04041 16.7119 7.74412 16.7119C7.4013 16.7057 7.07072 16.5868 6.79769 16.3716C6.52466 16.1564 6.32631 15.8574 6.22959 15.5171C6.16347 15.2568 6.1549 14.9853 6.20265 14.7201C6.22102 14.5962 6.22592 14.4711 6.21367 14.3472C6.19531 14.1283 6.08022 14.0082 5.87085 14.0057C5.35295 13.9994 4.83627 13.9969 4.3196 14.0057C4.11023 14.0057 3.99759 14.1345 4.00004 14.361C4.00371 14.6312 4.00249 14.8977 4.00249 15.1667V15.1655Z" fill="#B3063C"/>
<path d="M7.99901 2.00734V2.66331C7.99901 2.88414 7.91124 2.99075 7.6857 2.9951C7.2324 3.00163 6.77799 3.00163 6.32469 2.9951C6.10138 2.9951 6.01027 2.8885 6.00805 2.6644C6.00138 2.22926 5.99916 1.79413 6.00027 1.35899C6.00027 1.10443 6.08804 1.02284 6.33914 1.01958C6.77577 1.01305 7.21685 1.00326 7.6557 1C7.91791 1 7.99568 1.08159 7.99901 1.33723C8.00123 1.55915 7.99901 1.78325 7.99901 2.00843V2.00734Z" fill="#B3063C"/>
<path d="M13.4849 2.11279L13.075 2.78123C12.937 3.00621 12.7835 3.06213 12.5544 2.92819C12.0964 2.65769 11.6435 2.38068 11.1945 2.09588C10.972 1.95933 10.9473 1.79547 11.0852 1.56528C11.3507 1.11792 11.6201 0.673157 11.8934 0.229694C12.0521 -0.0304018 12.1901 -0.0590123 12.4438 0.0905426C12.8837 0.350638 13.3313 0.610734 13.7712 0.876031C14.0328 1.03599 14.0601 1.16734 13.9039 1.43003C13.7686 1.65762 13.6254 1.8852 13.4849 2.11409V2.11279Z" fill="#B3063C"/>
<path d="M17.0228 5.56695L16.3167 5.93076C16.0787 6.05292 15.9169 6.01973 15.7907 5.78072C15.5396 5.30139 15.295 4.81808 15.0583 4.33078C14.9387 4.0931 15.0044 3.93775 15.2437 3.81028C15.7079 3.56199 16.176 3.319 16.6454 3.07734C16.9189 2.9366 17.0543 2.9844 17.1924 3.24995C17.433 3.7107 17.6815 4.17542 17.9222 4.64148C18.0628 4.92032 18.0181 5.04911 17.7446 5.19384C17.508 5.31998 17.2647 5.44081 17.0215 5.56562L17.0228 5.56695Z" fill="#B3063C"/>
<path d="M15.0228 12.5669L14.3167 12.9308C14.0787 13.0529 13.9169 13.0197 13.7907 12.7807C13.5396 12.3014 13.295 11.8181 13.0583 11.3308C12.9387 11.0931 13.0044 10.9377 13.2437 10.8103C13.7079 10.562 14.176 10.319 14.6454 10.0773C14.9189 9.9366 15.0543 9.9844 15.1924 10.25C15.433 10.7107 15.6815 11.1754 15.9221 11.6415C16.0628 11.9203 16.0181 12.0491 15.7446 12.1938C15.508 12.32 15.2647 12.4408 15.0215 12.5656L15.0228 12.5669Z" fill="#B3063C"/>
<path d="M21.3907 9.92313L20.4453 9.84832C20.1275 9.82285 19.9828 9.68597 20.0016 9.36284C20.041 8.71341 20.0913 8.06558 20.1511 7.41774C20.1763 7.09939 20.3399 6.9816 20.6624 7.00229C21.29 7.04209 21.9177 7.08825 22.5454 7.13918C22.912 7.16783 23.0205 7.30154 22.9969 7.66127C22.9576 8.28523 22.923 8.91716 22.8805 9.5443C22.8522 9.91836 22.7263 10.0218 22.3566 9.99635C22.0373 9.97566 21.7132 9.94542 21.3892 9.91995L21.3907 9.92313Z" fill="#B3063C"/>
<path d="M20.8189 15.4193L20.1924 14.9652C19.9818 14.8125 19.9394 14.6573 20.0884 14.4431C20.3901 14.0146 20.6982 13.59 21.0114 13.1705C21.1629 12.9615 21.326 12.9512 21.5429 13.1038C21.9627 13.3989 22.38 13.6978 22.7959 14.0005C23.0386 14.1763 23.0578 14.3148 22.8909 14.5521C22.6008 14.9639 22.3106 15.3847 22.0166 15.7964C21.8395 16.0414 21.7085 16.0581 21.462 15.8849C21.2489 15.7336 21.0358 15.5758 20.8214 15.4206L20.8189 15.4193Z" fill="#B3063C"/>
<path d="M18.3672 19.9501L18.053 19.2009C17.9469 18.9494 17.9945 18.7866 18.2475 18.6764C18.7577 18.4571 19.2706 18.2473 19.7875 18.0442C20.0406 17.9406 20.1943 18.02 20.3045 18.2742C20.5208 18.7678 20.7316 19.2628 20.9398 19.7618C21.0622 20.0524 21.0024 20.1855 20.7194 20.3066C20.2283 20.5164 19.7345 20.733 19.2393 20.9401C18.9427 21.0612 18.8148 21.0047 18.6897 20.7155C18.5808 20.464 18.4761 20.2057 18.3672 19.9488V19.9501Z" fill="#B3063C"/>
<path d="M14.1602 22.2899L14.3029 21.3941C14.3514 21.092 14.4911 20.9658 14.7977 21.0079C15.4109 21.0935 16.0241 21.1897 16.6343 21.2934C16.9363 21.34 17.035 21.5054 16.9894 21.812C16.9044 22.4071 16.8134 23.0008 16.7162 23.596C16.6616 23.9431 16.525 24.0363 16.1865 23.9882C15.5961 23.9041 14.998 23.8259 14.4045 23.7387C14.0509 23.6831 13.9629 23.5569 14.0129 23.2067C14.057 22.9031 14.1101 22.598 14.1587 22.2914L14.1602 22.2899Z" fill="#B3063C"/>
<path d="M6.64385 20.7541L7.14102 20.1691C7.30886 19.9716 7.46526 19.9423 7.66489 20.1067C8.06543 20.438 8.46088 20.7757 8.85124 21.1198C9.04578 21.2855 9.04451 21.4486 8.87667 21.65C8.55243 22.0425 8.22564 22.4324 7.89377 22.8198C7.7005 23.0467 7.56317 23.0543 7.34192 22.8708C6.95665 22.5522 6.56501 22.2324 6.17974 21.9087C5.95213 21.7137 5.9445 21.5824 6.13523 21.353C6.30053 21.1529 6.47346 20.9554 6.64385 20.7541Z" fill="#B3063C"/>
<path d="M3.64385 10.7541L4.14102 10.1691C4.30886 9.97159 4.46526 9.94228 4.66489 10.1067C5.06543 10.438 5.46088 10.7757 5.85124 11.1198C6.04578 11.2855 6.04451 11.4486 5.87667 11.65C5.55243 12.0425 5.22564 12.4324 4.89377 12.8198C4.7005 13.0467 4.56317 13.0543 4.34192 12.8708C3.95665 12.5522 3.56501 12.2324 3.17974 11.9087C2.95213 11.7137 2.9445 11.5824 3.13523 11.353C3.30053 11.1529 3.47346 10.9554 3.64385 10.7541Z" fill="#B3063C"/>
<path d="M9.64385 12.7541L10.141 12.1691C10.3089 11.9716 10.4653 11.9423 10.6649 12.1067C11.0654 12.438 11.4609 12.7757 11.8512 13.1198C12.0458 13.2855 12.0445 13.4486 11.8767 13.65C11.5524 14.0425 11.2256 14.4324 10.8938 14.8198C10.7005 15.0467 10.5632 15.0543 10.3419 14.8708C9.95665 14.5522 9.56501 14.2324 9.17974 13.9087C8.95213 13.7137 8.9445 13.5824 9.13523 13.353C9.30053 13.1529 9.47346 12.9554 9.64385 12.7541Z" fill="#B3063C"/>
<path d="M2.12889 17.2998L2.92249 17.0376C3.18933 16.9493 3.35109 17.011 3.44372 17.2802C3.6276 17.8213 3.80319 18.3666 3.9691 18.9134C4.05482 19.1811 3.96219 19.3325 3.6912 19.4251C3.16859 19.6059 2.64321 19.784 2.11644 19.9564C1.80951 20.0587 1.67678 19.9858 1.57586 19.6858C1.40027 19.1643 1.21639 18.64 1.04356 18.1143C0.942635 17.8003 1.01038 17.6741 1.31731 17.5676C1.58415 17.475 1.85652 17.3895 2.12751 17.2998H2.12889Z" fill="#B3063C"/>
<path d="M1.80133 12.2338L2.64952 12.4378C2.93417 12.5063 3.04543 12.6505 2.9833 12.9404C2.8547 13.5217 2.71887 14.1002 2.57293 14.6771C2.50502 14.9627 2.3403 15.0442 2.04986 14.9787C1.48633 14.8519 0.922792 14.7193 0.360703 14.5839C0.0312526 14.5052 -0.0467751 14.3682 0.0240279 14.0462C0.148294 13.4882 0.268226 12.9215 0.395382 12.3606C0.474855 12.0269 0.603456 11.9512 0.934351 12.0269C1.2219 12.0925 1.51089 12.1653 1.80133 12.2353V12.2338Z" fill="#B3063C"/>
<path d="M2.31009 7.70804L2.85292 8.24749C3.03599 8.42857 3.05379 8.58686 2.87454 8.77301C2.51349 9.14531 2.14736 9.51128 1.77488 9.87218C1.59435 10.052 1.4329 10.0381 1.24475 9.85572C0.879891 9.50368 0.517575 9.14784 0.157801 8.78947C-0.0532317 8.58053 -0.0494179 8.4425 0.150174 8.23736C0.497234 7.88025 0.845566 7.51555 1.19771 7.15719C1.40875 6.94571 1.53969 6.94951 1.75453 7.15719C1.94014 7.337 2.12321 7.52315 2.31009 7.70804Z" fill="#B3063C"/>
<path d="M19.7482 30.0925H11.8042V21.2589C11.8042 21.1157 11.6917 21 11.5524 21H10.2012C10.0619 21 9.94941 21.1157 9.94941 21.2589V30.0925H2.25177C2.11249 30.0925 2 30.2082 2 30.3514V31.7411C2 31.8843 2.11249 32 2.25177 32H19.7482C19.8875 32 20 31.8843 20 31.7411V30.3514C20 30.2082 19.8875 30.0925 19.7482 30.0925Z" fill="#B3063C"/>
</svg>
