<svg width="84" height="77" viewBox="0 0 84 77" fill="none" xmlns="http://www.w3.org/2000/svg">
<g clip-path="url(#clip0_135_684)">
<path d="M57.9404 53.5747C61.01 53.2705 63.3387 50.735 63.2328 47.6924C63.127 44.6498 60.4808 42.2158 57.3053 42.2158H57.0936C53.8124 42.3172 51.272 44.9541 51.3779 48.0981C51.4837 49.6194 52.1188 50.9378 53.0714 51.8506C49.4726 58.6457 43.9685 63.6152 35.7124 67.7734C30.1024 70.6131 24.2808 71.6273 18.4592 70.9174C13.696 70.3089 9.99133 68.2805 7.66267 64.9337C4.27554 59.9641 3.95799 54.5889 6.81589 49.2137C8.827 45.3598 12.0024 42.52 14.0135 41.1002C13.5902 39.7817 12.9551 37.5505 12.6375 35.9278C-2.71042 46.5768 -1.1227 60.9783 3.5346 67.7734C7.02758 72.8443 14.1194 75.9883 21.9521 75.9883C24.0691 75.9883 26.1861 75.7855 28.303 75.2784C41.8515 72.7429 52.1188 65.0351 57.9404 53.5747ZM76.5697 40.9987C68.5252 31.9724 56.6702 27.0029 43.1217 27.0029H41.4282C40.4755 25.1774 38.4644 23.9603 36.2416 23.9603H36.0299C32.7486 24.0617 30.2083 26.6986 30.3141 29.8426C30.42 32.8852 33.0662 35.3193 36.2416 35.3193H36.4533C38.782 35.2179 40.7931 33.798 41.6398 31.871H43.5451C51.5896 31.871 59.2106 34.1022 66.0907 38.4633C71.3831 41.8101 75.1936 46.1711 77.3106 51.4449C79.11 55.7045 79.0042 59.8627 77.0989 63.4124C74.1352 68.7876 69.1603 71.7287 62.5977 71.7287C58.3638 71.7287 54.3416 70.5117 52.2246 69.5989C51.0603 70.6131 48.9434 72.2358 47.4615 73.25C52.0129 75.2784 56.6703 76.394 61.1159 76.394C71.2773 76.394 78.7925 71.0188 81.6504 65.6436C84.7199 59.7613 84.5082 49.6194 76.5697 40.9987ZM22.7989 55.2988C22.9048 58.3414 25.551 60.7755 28.7264 60.7755H28.9381C32.2194 60.6741 34.7597 58.0372 34.6539 54.8932C34.548 51.8506 31.9018 49.4165 28.7264 49.4165H28.5147C28.303 49.4165 27.9855 49.4165 27.7738 49.5179C23.434 42.6214 21.6346 35.1164 22.2697 27.0029C22.6931 20.9178 24.81 15.644 28.5147 11.2829C31.5843 7.53043 37.5118 5.70489 41.534 5.60347C52.7539 5.40063 57.517 18.788 57.8346 24.1632C59.2106 24.4674 61.5393 25.1774 63.127 25.6845C61.8568 9.25456 51.272 0.735352 41.1106 0.735352C31.5843 0.735352 22.7989 7.32759 19.3059 17.0638C14.4369 30.0455 17.6124 42.52 23.5399 52.3577C23.0106 53.0676 22.6931 54.1832 22.7989 55.2988Z" fill="white"/>
</g>
<defs>
<clipPath id="clip0_135_684">
<rect width="83.1783" height="75.9594" fill="white" transform="translate(0.305664 0.735352)"/>
</clipPath>
</defs>
</svg>
