<svg width="79" height="77" viewBox="0 0 79 77" fill="none" xmlns="http://www.w3.org/2000/svg">
<path d="M73.6661 31.7627C74.5509 29.2097 74.8569 26.5051 74.5637 23.8298C74.2705 21.1544 73.3848 18.5698 71.9658 16.2485C67.6494 9.04963 58.9738 5.34661 50.5009 7.08667C48.1549 4.5864 45.1636 2.72158 41.8274 1.67948C38.4912 0.637393 34.9275 0.45472 31.4942 1.14981C28.061 1.84491 24.8791 3.39329 22.2681 5.63947C19.657 7.88564 17.7088 10.7505 16.6191 13.9464C13.868 14.4869 11.269 15.5838 8.99583 17.1637C6.72264 18.7437 4.8276 20.7704 3.43737 23.1083C-0.926039 30.2958 0.064648 39.3618 5.8868 45.528C4.9987 48.0798 4.68958 50.7838 4.98011 53.4593C5.27064 56.1347 6.15414 58.7199 7.57149 61.0418C11.8934 68.2434 20.5745 71.9461 29.0519 70.2037C30.9158 72.2146 33.206 73.8215 35.7695 74.9169C38.3331 76.0124 41.1111 76.5713 43.918 76.5562C52.6024 76.5636 60.2965 71.192 62.9493 63.2689C65.7 62.7274 68.2985 61.6302 70.5715 60.0503C72.8445 58.4704 74.7397 56.4443 76.1307 54.107C80.4414 46.9324 79.4467 37.9154 73.6661 31.7627ZM43.918 71.594C40.4515 71.5993 37.0938 70.4352 34.4335 68.3059L34.9015 68.0517L50.6567 59.3383C51.0489 59.118 51.3745 58.8037 51.6015 58.4263C51.8286 58.049 51.9492 57.6216 51.9517 57.186V35.9028L58.6127 39.5944C58.6792 39.6268 58.7256 39.6879 58.7374 39.7589V57.3952C58.7204 65.2301 52.0954 71.5777 43.918 71.594ZM12.0642 58.5612C10.3257 55.6851 9.70156 52.3137 10.3014 49.0402L10.7692 49.3093L26.5403 58.023C26.9305 58.2424 27.3748 58.3581 27.8272 58.3581C28.2796 58.3581 28.7239 58.2424 29.1141 58.023L48.3793 47.3814V54.7498C48.3775 54.7879 48.3668 54.8252 48.3479 54.8588C48.329 54.8925 48.3024 54.9216 48.2701 54.944L32.3121 63.7623C25.2206 67.6766 16.1605 65.349 12.0642 58.5612ZM7.91452 25.6792C9.66503 22.7846 12.428 20.5768 15.7144 19.4467V37.3819C15.7085 37.8153 15.824 38.2422 16.049 38.6181C16.274 38.9941 16.6002 39.3053 16.9935 39.5193L36.1651 50.1162L29.5041 53.8079C29.4681 53.8261 29.4279 53.8357 29.3872 53.8357C29.3464 53.8357 29.3063 53.8261 29.2702 53.8079L13.3433 45.005C6.26582 41.0744 3.83865 32.4004 7.91452 25.6047V25.6792ZM62.6374 37.8605L43.403 27.1589L50.0487 23.4822C50.0848 23.4639 50.125 23.4543 50.1658 23.4543C50.2067 23.4543 50.2469 23.4639 50.2829 23.4822L66.2098 32.3005C68.6451 33.6468 70.6303 35.6291 71.9338 38.0159C73.2373 40.4026 73.8053 43.0955 73.5714 45.7799C73.3375 48.4644 72.3114 51.0297 70.6129 53.1764C68.9144 55.323 66.6135 56.9625 63.979 57.9032V39.9678C63.9652 39.5352 63.8343 39.1135 63.5991 38.7441C63.3639 38.3747 63.0325 38.0702 62.6374 37.8605ZM69.267 28.31L68.7989 28.0407L53.0592 19.2524C52.6666 19.0317 52.2197 18.9154 51.7645 18.9154C51.3093 18.9154 50.8624 19.0317 50.4698 19.2524L31.2199 29.8944V22.526C31.2158 22.4885 31.2223 22.4507 31.2388 22.4165C31.2553 22.3823 31.2811 22.353 31.3135 22.3317L47.2404 13.5283C49.6814 12.181 52.4723 11.5274 55.2868 11.6441C58.1012 11.7607 60.8228 12.6428 63.1333 14.187C65.4437 15.7313 67.2475 17.8739 68.3337 20.3643C69.4198 22.8547 69.7434 25.59 69.2667 28.2501V28.31H69.267ZM27.5856 41.3727L20.9246 37.696C20.8913 37.6767 20.8628 37.6506 20.8412 37.6196C20.8196 37.5886 20.8054 37.5535 20.7995 37.5166V19.9253C20.8032 17.2266 21.6087 14.5848 23.1217 12.3085C24.6347 10.0323 26.7928 8.21584 29.3436 7.07145C31.8944 5.92706 34.7325 5.50207 37.5261 5.84617C40.3197 6.19027 42.9533 7.28923 45.1191 9.01458L44.651 9.26875L28.8958 17.9822C28.5037 18.2025 28.1782 18.5168 27.9512 18.8942C27.7242 19.2715 27.6036 19.6989 27.6011 20.1345L27.5856 41.373V41.3727ZM31.2043 33.8995L39.7842 29.1616L48.3793 33.8998V43.3754L39.8153 48.1135L31.2202 43.3754L31.2043 33.8995Z" fill="white"/>
</svg>
