<svg width="37" height="77" viewBox="0 0 37 77" fill="none" xmlns="http://www.w3.org/2000/svg">
<path d="M18.0853 0.942871L20.2009 4.75005C20.6765 5.45262 21.1918 6.0745 21.7987 6.65364C23.5781 8.33727 25.2368 10.1342 26.7632 12.0321C30.3479 16.5419 32.7657 21.5501 34.4924 26.9665C35.5279 30.2753 36.0902 33.6694 36.1324 37.1016C36.3058 47.3625 32.6344 56.1731 25.2323 63.4955C24.0282 64.6567 22.7275 65.722 21.3429 66.6808C20.6096 66.6808 20.2628 66.142 19.9606 65.646C19.4102 64.7261 19.0439 63.7158 18.8805 62.6672C18.6204 61.4258 18.4494 60.1844 18.5337 58.9027V58.3235C18.4742 58.2001 17.8276 1.23482 18.0853 0.942871Z" fill="white"/>
<path d="M18.0851 0.817009C17.9984 0.65086 17.9117 0.776659 17.825 0.857359C17.8671 1.6881 17.5649 2.42865 17.0917 3.13597C16.5715 3.83854 15.8828 4.37734 15.1916 4.95649C11.3518 8.1418 8.32951 11.9893 5.90919 16.2926C2.68871 22.0841 1.02892 28.2909 0.558238 34.8253C0.342713 37.1822 1.33611 45.4992 2.1115 47.8988C4.22711 54.2695 8.02728 59.6076 12.9497 64.2408C14.1586 65.3563 15.4517 66.3912 16.7895 67.3857C17.1784 67.3857 17.2205 67.0534 17.3097 66.8066C17.4802 66.2784 17.6102 65.7389 17.6986 65.1926L18.5657 58.9881L18.0851 0.817009Z" fill="#F3F3F3"/>
<path d="M20.2003 69.2013C20.287 68.2519 20.7626 67.4639 21.2804 66.6783C20.7602 66.4718 20.3737 66.0611 20.0715 65.603C19.8109 65.1693 19.5951 64.7122 19.4274 64.2382C18.8229 62.5008 18.6941 60.6779 18.5207 58.9025V57.8273C18.3052 57.9934 18.2606 59.3986 18.2606 59.6074C18.1345 61.4839 17.8746 63.3499 17.4827 65.1924C17.3539 65.9377 17.2672 66.6806 16.7891 67.3429C16.7891 67.4259 16.7891 67.509 16.8312 67.6324C17.609 69.8256 17.8221 72.0591 17.9534 74.3353V75.1661C17.9534 76.1582 17.9113 75.9494 18.7709 76.2817C19.1177 76.4051 19.5042 76.4478 19.851 76.6947C20.1111 76.6947 20.1532 76.4882 20.1532 76.322L20.0244 74.9572V71.15C19.9823 70.4854 20.1111 69.8256 20.1978 69.2037L20.2003 69.2013Z" fill="#C2BFBF"/>
</svg>
