<svg width="90" height="77" viewBox="0 0 90 77" fill="none" xmlns="http://www.w3.org/2000/svg">
<g clip-path="url(#clip0_135_671)">
<path d="M73.1885 25.3301C72.2651 25.0256 71.3082 24.7374 70.323 24.4649C70.4849 23.8317 70.6336 23.2067 70.7657 22.5923C72.9348 12.504 71.5166 4.37682 66.6737 1.701C62.0299 -0.86476 54.4355 1.81046 46.7654 8.20596C46.0278 8.82094 45.2882 9.47206 44.5489 10.1545C44.0563 9.70296 43.5645 9.26666 43.0739 8.84933C35.0355 2.01085 26.9782 -0.870984 22.14 1.81258C17.5007 4.38578 16.1268 12.0261 18.0793 21.5869C18.2679 22.5104 18.4883 23.4534 18.7375 24.4122C17.5972 24.7224 16.4963 25.053 15.443 25.4048C6.01874 28.5529 0 33.4868 0 38.6045C0 43.8901 6.46112 49.1916 16.2772 52.4062C17.0518 52.6599 17.8556 52.8998 18.684 53.1275C18.4151 54.1645 18.1812 55.1807 17.9849 56.1719C16.1232 65.5667 17.5771 73.0266 22.204 75.5835C26.9832 78.2241 35.0041 75.5099 42.8144 68.9687C43.4317 68.4516 44.0512 67.9033 44.6718 67.3285C45.4763 68.0707 46.2794 68.7731 47.0783 69.432C54.6435 75.6694 62.1153 78.1881 66.738 75.6241C71.5125 72.9759 73.0641 64.9622 71.0497 55.2123C70.8958 54.4677 70.7168 53.7069 70.5157 52.9327C71.079 52.7731 71.6319 52.6084 72.1711 52.4372C82.3759 49.1977 89.0154 43.9607 89.0154 38.6045C89.0154 33.4682 82.8026 28.5011 73.1885 25.3301ZM70.9752 48.9788C70.4884 49.1332 69.989 49.2824 69.4801 49.4271C68.3535 46.01 66.8331 42.3764 64.9725 38.6222C66.748 34.9575 68.2097 31.3704 69.3047 27.9754C70.2153 28.2279 71.0991 28.4941 71.9507 28.7751C80.188 31.4921 85.2127 35.5092 85.2127 38.6045C85.2127 41.9015 79.7862 46.1815 70.9752 48.9788ZM67.3192 55.9199C68.21 60.2312 68.3372 64.1291 67.7472 67.1762C67.217 69.9143 66.1508 71.7398 64.8325 72.4709C62.0272 74.0267 56.0282 72.0044 49.5583 66.6701C48.8166 66.0586 48.0696 65.4057 47.3201 64.7146C49.8283 62.0863 52.3351 59.0308 54.7817 55.6374C59.0849 55.2715 63.1505 54.6734 66.8374 53.8568C67.0189 54.5586 67.1802 55.2469 67.3192 55.9199ZM30.3474 72.2021C27.6066 73.1295 25.4236 73.1561 24.1041 72.4271C21.2963 70.8754 20.129 64.8858 21.7212 56.8514C21.9036 55.9313 22.1207 54.9861 22.3709 54.02C26.0173 54.7925 30.0531 55.3485 34.3667 55.6835C36.8297 59.0041 39.4089 62.0562 42.008 64.7287C41.4402 65.254 40.8745 65.7541 40.312 66.2253C36.8584 69.1177 33.3974 71.1699 30.3474 72.2021ZM17.507 48.9586C13.1666 47.5372 9.58203 45.6898 7.12501 43.6739C4.91722 41.8623 3.80255 40.0638 3.80255 38.6045C3.80255 35.4989 8.635 31.5377 16.6947 28.8453C17.6726 28.5186 18.6963 28.2107 19.7587 27.9215C20.8726 31.3931 22.3338 35.0228 24.0971 38.6931C22.311 42.418 20.829 46.1054 19.7042 49.6178C18.9468 49.4092 18.2131 49.1896 17.507 48.9586ZM21.8112 20.8872C20.1384 12.6958 21.2494 6.51645 24.0452 4.96585C27.0232 3.31399 33.6083 5.66919 40.5489 11.5739C40.9926 11.9513 41.438 12.3463 41.8846 12.755C39.2983 15.4158 36.7427 18.445 34.3015 21.746C30.1151 22.1178 26.1077 22.715 22.4231 23.5147C22.1915 22.6219 21.9863 21.7448 21.8112 20.8872ZM60.2084 29.9714C59.3276 28.5137 58.4234 27.0905 57.5015 25.7061C60.3417 26.0501 63.0629 26.5068 65.6183 27.0656C64.8511 29.4214 63.8949 31.8845 62.7692 34.4096C61.9618 32.9408 61.1078 31.4599 60.2084 29.9714ZM44.5502 15.3588C46.3042 17.1795 48.0607 19.2123 49.7884 21.4178C48.0474 21.339 46.2848 21.298 44.5077 21.298C42.7474 21.298 40.9978 21.3381 39.2676 21.4155C40.997 19.2305 42.7687 17.2005 44.5502 15.3588ZM28.7916 29.9966C27.9117 31.4584 27.0735 32.9313 26.2788 34.4069C25.1714 31.8906 24.224 29.4162 23.4502 27.027C25.9899 26.4825 28.6982 26.0372 31.5203 25.6998C30.5855 27.0969 29.6738 28.5309 28.7916 29.9966ZM31.6016 51.7691C28.6859 51.4574 25.9368 51.0351 23.3977 50.5055C24.184 48.0737 25.1522 45.5465 26.2831 42.976C27.0799 44.4506 27.9214 45.924 28.8066 47.389C29.7083 48.8815 30.6427 50.3434 31.6016 51.7691ZM44.6554 62.1069C42.853 60.2438 41.0553 58.1828 39.2996 55.9659C41.004 56.0299 42.7417 56.0627 44.5077 56.0627C46.3221 56.0627 48.1157 56.0236 49.8811 55.9483C48.1477 58.2051 46.3975 60.2693 44.6554 62.1069ZM62.8055 42.845C63.9953 45.4432 64.9983 47.9572 65.7946 50.3477C63.2137 50.9118 60.4271 51.3662 57.4911 51.7038C58.4151 50.3007 59.3273 48.8531 60.2237 47.364C61.1304 45.8574 61.9914 44.3485 62.8055 42.845ZM56.9297 45.5437C55.5382 47.8554 54.1097 50.0621 52.6594 52.1451C50.018 52.3261 47.2891 52.4193 44.5077 52.4193C41.7376 52.4193 39.043 52.3368 36.4483 52.1755C34.9396 50.0651 33.48 47.8519 32.0974 45.5636C30.7184 43.2816 29.4496 40.9803 28.2996 38.6919C29.4493 36.3982 30.7151 34.0943 32.0861 31.8164L32.0858 31.8168C33.4605 29.5328 34.9073 27.3304 36.4021 25.2332C39.0494 25.0415 41.764 24.9415 44.5075 24.9415C47.2634 24.9415 49.9817 25.0423 52.6282 25.2357C54.1002 27.3175 55.5371 29.5128 56.9172 31.7971C58.313 34.1071 59.5951 36.3956 60.7546 38.6401C59.5986 40.9232 58.3193 43.2348 56.9297 45.5437ZM64.7742 4.85746C67.7551 6.50446 68.9143 13.1468 67.0414 21.857C66.922 22.4127 66.7875 22.9788 66.6414 23.5525C62.9483 22.7361 58.938 22.1286 54.7394 21.7512C52.2934 18.4139 49.7588 15.3799 47.2146 12.7533C47.8986 12.1228 48.5817 11.5217 49.2619 10.9543C55.8336 5.47472 61.9758 3.31126 64.7742 4.85746ZM44.5077 30.9886C48.8976 30.9886 52.4565 34.3982 52.4565 38.6045C52.4565 42.8105 48.8976 46.2204 44.5077 46.2204C40.1178 46.2204 36.5589 42.8105 36.5589 38.6045C36.5589 34.3982 40.1178 30.9886 44.5077 30.9886Z" fill="white"/>
</g>
<defs>
<clipPath id="clip0_135_671">
<rect width="89.0154" height="75.9594" fill="white" transform="translate(0 0.735352)"/>
</clipPath>
</defs>
</svg>
