<svg width="117" height="47" viewBox="0 0 117 47" fill="none" xmlns="http://www.w3.org/2000/svg">
<path d="M116.401 24.3819C116.401 16.4986 112.414 10.2782 104.794 10.2782C97.1415 10.2782 92.5116 16.4986 92.5116 24.3203C92.5116 33.5893 97.9775 38.2699 105.823 38.2699C109.649 38.2699 112.542 37.4385 114.729 36.2683V30.1095C112.542 31.1565 110.035 31.8032 106.851 31.8032C103.733 31.8032 100.968 30.7562 100.614 27.1225H116.336C116.336 26.7222 116.401 25.1209 116.401 24.3819ZM100.517 21.4564C100.517 17.9767 102.736 16.5294 104.762 16.5294C106.723 16.5294 108.813 17.9767 108.813 21.4564H100.517ZM80.1009 10.2782C76.9499 10.2782 74.9243 11.6948 73.799 12.6802L73.381 10.771H66.3076V46.6767L74.3456 45.0446L74.3778 36.3299C75.5352 37.1306 77.2393 38.2699 80.0687 38.2699C85.8239 38.2699 91.0647 33.8356 91.0647 24.0739C91.0326 15.1437 85.7275 10.2782 80.1009 10.2782ZM78.1717 31.4953C76.2747 31.4953 75.1494 30.8486 74.3778 30.048L74.3456 18.6234C75.1816 17.7304 76.339 17.1145 78.1717 17.1145C81.0976 17.1145 83.1231 20.2555 83.1231 24.2895C83.1231 28.4159 81.1297 31.4953 78.1717 31.4953ZM55.2472 8.46141L63.3174 6.79853V0.547363L55.2472 2.17944V8.46141ZM55.2472 10.8017H63.3174V37.7464H55.2472V10.8017ZM46.5983 13.0805L46.0839 10.8017H39.139V37.7464H47.177V19.4856C49.074 17.1145 52.2892 17.5456 53.2859 17.8844V10.8017C52.2571 10.4322 48.4953 9.75475 46.5983 13.0805ZM30.5222 4.11946L22.6771 5.72075L22.6449 30.3867C22.6449 34.9442 26.2138 38.3007 30.9723 38.3007C33.6088 38.3007 35.5379 37.8388 36.599 37.2845V31.0334C35.5701 31.4337 30.49 32.8502 30.49 28.2927V17.3609H36.599V10.8017H30.49L30.5222 4.11946ZM8.78733 18.6234C8.78733 17.4224 9.8162 16.9605 11.5203 16.9605C13.9638 16.9605 17.0504 17.6688 19.494 18.9313V11.6948C16.8254 10.6786 14.1889 10.2782 11.5203 10.2782C4.99337 10.2782 0.652832 13.5424 0.652832 18.9929C0.652832 27.4921 12.8707 26.1371 12.8707 29.8016C12.8707 31.2181 11.5846 31.68 9.78405 31.68C7.11542 31.68 3.70729 30.633 1.00651 29.2165V36.5455C3.99666 37.7772 7.01896 38.3007 9.78405 38.3007C16.4717 38.3007 21.0695 35.129 21.0695 29.6168C21.0373 20.4403 8.78733 22.0723 8.78733 18.6234Z" fill="white"/>
</svg>
